<svg width="91" height="107" viewBox="0 0 91 107" fill="none" xmlns="http://www.w3.org/2000/svg">
<path d="M43.4247 50.5691C43.6292 50.6315 43.8497 50.6146 44.0423 50.5216C44.2349 50.4287 44.3853 50.2665 44.4636 50.0675C44.542 49.8686 44.5424 49.6474 44.4649 49.4481C44.3873 49.2488 44.2375 49.0861 44.0453 48.9923C43.8723 48.9243 43.6854 48.8989 43.5005 48.9184C43.3155 48.9378 43.138 49.0016 42.983 49.1042C42.8654 49.2123 42.7807 49.3513 42.7385 49.5054C42.6963 49.6594 42.6984 49.8222 42.7445 49.9751C42.7906 50.128 42.8789 50.2649 42.9992 50.3699C43.1195 50.475 43.2669 50.544 43.4247 50.5691ZM43.106 49.708C43.106 49.2384 44.0397 49.1825 44.1292 49.708C44.3025 50.4405 43.078 50.3958 43.106 49.708ZM42.7705 14.7847C41.9094 15.7967 42.1163 17.0995 43.4694 17.7369C43.7756 17.6579 44.088 17.6055 44.4031 17.5803C44.7624 17.6039 45.1194 17.6544 45.4711 17.7313C45.8441 17.5071 46.1342 17.1677 46.2976 16.7643C46.4609 16.3609 46.4888 15.9153 46.3769 15.4948C46.2727 15.129 46.0695 14.7991 45.7897 14.5416C45.5099 14.284 45.1643 14.1088 44.7911 14.0354C44.418 13.9619 44.0318 13.993 43.6752 14.1252C43.3186 14.2574 43.0055 14.4857 42.7705 14.7847ZM42.4574 24.4912C42.4508 24.4582 42.433 24.4285 42.407 24.4072C42.381 24.3858 42.3484 24.3742 42.3148 24.3742C42.2812 24.3742 42.2486 24.3858 42.2226 24.4072C42.1966 24.4285 42.1788 24.4582 42.1722 24.4912C42.1307 24.8027 42.1064 25.1163 42.0995 25.4305C42.1142 25.4753 42.1427 25.5142 42.1808 25.5419C42.219 25.5695 42.2649 25.5843 42.312 25.5843C42.3591 25.5843 42.405 25.5695 42.4431 25.5419C42.4813 25.5142 42.5098 25.4753 42.5245 25.4305C42.5524 25.3355 42.4574 24.5862 42.4574 24.4912ZM46.8689 24.5918C46.8624 24.5588 46.8446 24.5292 46.8186 24.5078C46.7926 24.4865 46.76 24.4748 46.7263 24.4748C46.6927 24.4748 46.6601 24.4865 46.6341 24.5078C46.6081 24.5292 46.5903 24.5588 46.5838 24.5918C46.5838 24.6701 46.4887 25.4249 46.5167 25.5312C46.5314 25.5759 46.5598 25.6149 46.598 25.6425C46.6361 25.6701 46.682 25.685 46.7291 25.685C46.7762 25.685 46.8221 25.6701 46.8603 25.6425C46.8984 25.6149 46.9269 25.5759 46.9416 25.5312C46.9696 25.4249 46.8689 24.6757 46.8689 24.5918ZM42.4965 22.6516C41.8256 22.5957 41.518 23.6357 41.5068 23.6804C41.4972 23.7123 41.5006 23.7467 41.5164 23.7761C41.5321 23.8055 41.5588 23.8274 41.5907 23.837C41.6226 23.8466 41.657 23.8432 41.6864 23.8275C41.7157 23.8118 41.7376 23.785 41.7473 23.7531C41.7808 23.6693 42.1387 23.0598 42.558 23.0822C42.7705 23.0989 42.8767 22.6796 42.4965 22.6516ZM47.0367 23.8314C47.0263 23.6344 46.956 23.4452 46.835 23.2893C46.7141 23.1334 46.5484 23.0182 46.3601 22.9592C46.3038 22.9443 46.2438 22.9525 46.1935 22.9819C46.1432 23.0112 46.1066 23.0594 46.0917 23.1157C46.0769 23.1721 46.0851 23.232 46.1144 23.2823C46.1438 23.3327 46.1919 23.3693 46.2483 23.3841C46.3857 23.433 46.5088 23.5153 46.6064 23.6236C46.704 23.732 46.7731 23.863 46.8074 24.0047C46.8163 24.0351 46.8369 24.0608 46.8647 24.076C46.8925 24.0912 46.9252 24.0947 46.9556 24.0858C46.986 24.0769 47.0116 24.0563 47.0268 24.0285C47.042 24.0007 47.0456 23.968 47.0367 23.9376C47.0367 23.9376 47.0478 23.8761 47.0367 23.8314ZM44.4479 26.8004C44.4703 26.793 44.4897 26.7788 44.5035 26.7597C44.5174 26.7407 44.5248 26.7177 44.5248 26.6942C44.5248 26.6706 44.5174 26.6477 44.5035 26.6286C44.4897 26.6095 44.4703 26.5953 44.4479 26.5879C44.1907 26.5376 43.8887 26.5208 43.8887 26.2692C43.9183 25.9553 43.9668 25.6435 44.0341 25.3355C44.0372 25.3077 44.0303 25.2797 44.0146 25.2565C43.999 25.2334 43.9755 25.2166 43.9486 25.2092C43.9216 25.2018 43.8929 25.2042 43.8676 25.2161C43.8422 25.228 43.822 25.2485 43.8105 25.274C43.6714 25.6345 43.5739 26.0096 43.5197 26.3922C43.5309 26.7277 43.8887 26.9793 44.4479 26.8004ZM45.1468 27.5329C45.0237 27.6661 44.8726 27.7703 44.7044 27.838C44.5361 27.9057 44.3549 27.9351 44.1739 27.9243C44.0498 27.9035 43.9315 27.8569 43.8265 27.7876C43.7215 27.7182 43.6323 27.6276 43.5644 27.5217C43.5489 27.4928 43.5225 27.4712 43.491 27.4618C43.4595 27.4523 43.4256 27.4558 43.3967 27.4714C43.3678 27.4869 43.3462 27.5133 43.3368 27.5448C43.3274 27.5763 43.3308 27.6102 43.3464 27.6391C43.4358 27.833 43.5759 27.9991 43.752 28.1199C43.928 28.2407 44.1334 28.3117 44.3464 28.3255C44.5595 28.3392 44.7723 28.2952 44.9624 28.198C45.1525 28.1008 45.3128 27.954 45.4264 27.7733C45.499 27.5888 45.2978 27.3987 45.1468 27.5329ZM45.0853 60.7565C45.0993 60.7661 45.1158 60.7713 45.1328 60.7713C45.1498 60.7713 45.1664 60.7661 45.1803 60.7565C45.7786 60.3819 50.2796 56.8034 50.6487 56.4847C50.6609 56.4733 50.6695 56.4585 50.6733 56.4422C50.6771 56.4258 50.6759 56.4087 50.6699 56.3931C50.6639 56.3774 50.6533 56.364 50.6396 56.3544C50.6258 56.3448 50.6095 56.3396 50.5927 56.3393C50.5927 56.3393 41.3671 56.1604 39.74 56.1045C39.6449 56.1045 39.6282 56.2052 39.6785 56.2499C39.9748 56.5406 43.5477 59.5767 45.0853 60.7565ZM64.5207 103.826C64.9401 102.971 64.1573 101.534 63.805 100.952C63.7982 100.938 63.7874 100.926 63.7741 100.918C63.7607 100.91 63.7453 100.905 63.7295 100.905C63.7138 100.905 63.6984 100.91 63.685 100.918C63.6717 100.926 63.6609 100.938 63.6541 100.952C63.3689 101.512 62.7706 102.977 63.3409 103.821C63.7267 104.447 64.2188 104.492 64.5207 103.826ZM30.4696 97.8158C30.4137 97.8493 26.3208 100.203 26.1643 100.444C26.0077 100.684 26.0133 100.863 26.2258 100.88C27.9032 100.986 28.5462 101.126 28.6133 101.204C28.7195 101.579 28.8369 103.1 29.0606 103.401C29.0844 103.439 29.1185 103.468 29.1587 103.487C29.199 103.505 29.2436 103.511 29.2874 103.505C29.3311 103.498 29.372 103.479 29.4052 103.45C29.4383 103.421 29.4624 103.383 29.4743 103.34C29.7092 102.457 30.4472 99.7056 30.5926 99.2527C30.738 98.7998 30.984 97.6312 30.4696 97.8158ZM30.3913 98.3413C30.3354 98.7104 30.067 99.7783 29.273 102.507C29.2074 101.938 29.0876 101.376 28.9152 100.829C28.2461 100.629 27.5552 100.511 26.8576 100.477C28.0094 99.7615 29.2171 99.0738 30.3745 98.3413H30.3913ZM33.3603 100.125C33.4063 100.121 33.4494 100.101 33.4824 100.068C33.5153 100.036 33.5362 99.9933 33.5414 99.9474C33.5467 99.9015 33.536 99.8552 33.5112 99.8163C33.4863 99.7774 33.4488 99.7482 33.405 99.7336C33.1982 99.6732 32.9829 99.6467 32.7676 99.6553V98.8446C32.7676 98.806 32.7523 98.769 32.725 98.7418C32.6978 98.7145 32.6608 98.6992 32.6222 98.6992C32.5837 98.6992 32.5467 98.7145 32.5194 98.7418C32.4922 98.769 32.4769 98.806 32.4769 98.8446C32.4769 99.1353 32.4265 99.4037 32.4042 99.6777C32.1414 99.6777 31.8786 99.728 31.6046 99.7671C31.3306 99.8063 31.4481 100.119 31.6493 100.103C31.8858 100.089 32.1229 100.089 32.3594 100.103C32.3594 100.349 32.3091 100.611 32.2979 100.863C32.3068 100.921 32.3362 100.974 32.3808 101.013C32.4254 101.051 32.4823 101.072 32.5412 101.072C32.6 101.072 32.6569 101.051 32.7015 101.013C32.7461 100.974 32.7755 100.921 32.7844 100.863V100.119C32.976 100.134 33.1684 100.135 33.3603 100.125ZM46.8298 97.0665C46.7819 96.9257 46.6929 96.8025 46.5743 96.7128C46.4557 96.6231 46.3129 96.571 46.1644 96.5633C45.65 96.5633 45.1692 97.1951 44.761 97.7822H44.7219C44.3249 97.5026 44.2019 97.5026 43.8328 97.894C43.3408 98.4252 43.5477 98.5203 44.1851 99.0123C43.7546 99.6106 42.6698 101.154 42.5077 101.433C42.3455 101.713 41.8703 102.501 42.3959 102.937C42.5038 103.015 42.6343 103.054 42.7669 103.049C42.8995 103.044 43.0266 102.995 43.1283 102.909C43.9404 101.925 44.6875 100.888 45.3649 99.8063C45.924 100.142 45.9687 100.209 46.4048 99.851C46.4681 99.8097 46.5212 99.7544 46.5599 99.6895C46.5987 99.6246 46.6221 99.5517 46.6285 99.4764C46.6285 99.2024 46.2986 99.0123 46.0694 98.8278C46.2651 98.5426 46.4384 98.2687 46.5949 97.9835C46.6988 97.8571 46.7736 97.7095 46.8142 97.5511C46.8547 97.3926 46.8601 97.2272 46.8298 97.0665ZM45.0629 97.9891C45.2481 97.7387 45.4459 97.498 45.6556 97.2678C45.9296 96.9715 46.1309 96.8988 46.3154 97.0274C46.6285 97.2343 46.4552 97.4188 45.8122 98.5874L45.0629 97.9891ZM42.6866 102.652C42.3679 102.58 42.5748 102.093 42.7258 101.802C42.8767 101.512 44.0118 99.8678 44.4479 99.2024C44.6212 99.3254 44.912 99.5155 45.0517 99.5994C44.6715 100.248 43.5924 101.836 43.3743 102.082C43.1563 102.328 42.955 102.714 42.6866 102.652ZM44.2801 97.9108L44.3696 97.9444C44.4591 97.9779 46.2818 99.4652 46.2818 99.4987C46.2005 99.6193 46.0936 99.7205 45.9687 99.7951C45.7563 99.6273 44.4367 98.7327 43.9447 98.3469C44.0472 98.1946 44.1592 98.049 44.2801 97.9108ZM56.6146 100.701C56.6146 100.701 59.1531 103.424 59.3767 103.497C59.7513 103.597 61.7754 101.26 62.0438 100.947C62.3066 101.171 62.4408 101.21 62.7371 100.913C62.9204 100.722 63.0731 100.503 63.19 100.265C63.2095 100.228 63.2168 100.186 63.2108 100.145C63.2047 100.103 63.1857 100.065 63.1564 100.036C60.3105 97.1504 59.8016 96.6136 59.6842 96.5689C59.3152 96.4123 59.1251 96.8652 58.907 97.0274C58.6051 97.3181 58.443 97.4076 58.9406 97.9667C56.6705 100.427 56.4916 100.41 56.6146 100.701ZM59.0077 97.4188C59.1566 97.2469 59.3234 97.0913 59.5053 96.9547C59.5053 96.9547 61.1827 98.6321 62.7706 100.198C62.6691 100.387 62.5452 100.563 62.4016 100.723C62.3401 100.662 59.0971 97.5138 58.9853 97.4188H59.0077ZM61.8033 100.69C59.3655 103.273 59.6115 103.172 59.3543 102.926C59.2034 102.798 57.3303 100.869 57.0451 100.539C57.2464 100.315 59.1027 98.3022 59.2257 98.1904C59.1978 98.2127 61.4008 100.343 61.781 100.69H61.8033Z" fill="black"/>
<path d="M58.8511 99.5099C58.292 100.103 57.8558 100.276 57.9174 100.595C58.1904 100.999 58.5053 101.374 58.8567 101.713C58.8781 101.73 58.9048 101.74 58.9325 101.741C58.9602 101.741 58.9872 101.732 59.0092 101.715C59.0311 101.699 59.0468 101.675 59.0536 101.648C59.0605 101.621 59.0581 101.593 59.0468 101.568C59.0468 101.568 58.6051 100.813 58.415 100.561C58.4597 100.505 58.935 99.8678 59.0636 99.7224C59.0918 99.6942 59.1076 99.656 59.1076 99.6162C59.1076 99.5763 59.0918 99.5381 59.0636 99.5099C59.0354 99.4818 58.9972 99.4659 58.9573 99.4659C58.9175 99.4659 58.8793 99.4818 58.8511 99.5099Z" fill="black"/>
<path d="M67.1039 106.37L53.394 106.281C53.394 105.325 53.0865 97.3852 53.0641 96.7087C53.0641 96.5018 52.7342 96.5018 52.7454 96.7087C52.7454 97.2678 52.9467 105.755 52.9746 106.275H38.0514C38.0514 105.37 37.906 98.2631 37.8948 97.7766C37.8948 97.7366 37.8789 97.6982 37.8506 97.6699C37.8223 97.6416 37.7839 97.6257 37.7439 97.6257C37.7038 97.6257 37.6654 97.6416 37.6371 97.6699C37.6088 97.6982 37.5929 97.7366 37.5929 97.7766V106.275C36.4299 106.275 24.1737 106.275 22.4963 106.398C22.4606 106.405 22.4283 106.424 22.4051 106.452C22.3819 106.481 22.3692 106.516 22.3692 106.552C22.3692 106.589 22.3819 106.624 22.4051 106.652C22.4283 106.68 22.4606 106.699 22.4963 106.706C23.9892 106.773 65.762 106.851 67.1319 106.533C67.15 106.526 67.1651 106.513 67.1747 106.496C67.1843 106.479 67.1878 106.459 67.1845 106.44C67.1812 106.421 67.1713 106.404 67.1566 106.391C67.142 106.378 67.1233 106.371 67.1039 106.37ZM26.8911 5.4807C27.0197 5.70435 28.3281 5.77704 28.4455 5.73231C28.5227 5.70523 28.5893 5.65432 28.6356 5.58693C29.0791 5.95686 29.544 6.30039 30.0279 6.61574C30.0969 6.67152 30.1768 6.71227 30.2625 6.73537C30.3482 6.75848 30.4378 6.76344 30.5255 6.74993C30.7603 6.68283 35.1719 4.05491 35.239 4.01018C35.5297 3.83126 35.5353 3.65234 35.4962 3.53492C35.4123 3.30568 30.9057 1.19216 30.1844 0.40378C30.1635 0.38865 30.1398 0.377803 30.1147 0.371861C30.0896 0.365919 30.0636 0.365 30.0381 0.369157C30.0127 0.373314 29.9883 0.382465 29.9664 0.396084C29.9444 0.409703 29.9254 0.42752 29.9104 0.44851C29.3513 1.09151 28.8537 1.75129 28.3449 2.40547C27.8326 2.38969 27.3206 2.44616 26.824 2.57321C26.7692 3.54262 26.7917 4.51485 26.8911 5.4807ZM30.7324 3.8033C30.6753 3.95946 30.5669 4.09156 30.4248 4.17792C30.1453 4.27297 29.8657 4.01018 29.7707 3.89276C29.4631 3.53492 30.162 2.7745 30.6261 3.37277C30.6841 3.43332 30.7246 3.50844 30.7433 3.59015C30.762 3.67186 30.7582 3.75711 30.7324 3.83685V3.8033ZM30.3298 2.76891C30.1624 2.73951 29.9902 2.75718 29.8324 2.81994C29.6745 2.88271 29.5371 2.9881 29.4357 3.12437C29.3342 3.26064 29.2726 3.42242 29.2577 3.59167C29.2428 3.76092 29.2752 3.93097 29.3513 4.08287C29.4654 4.27066 29.6324 4.42066 29.8313 4.51414C30.0301 4.60761 30.2522 4.64042 30.4696 4.60845C30.6197 4.55368 30.7531 4.46108 30.857 4.33962C30.9608 4.21815 31.0315 4.07194 31.0622 3.91513C31.6773 3.91513 33.7908 3.91513 34.6351 3.87599L30.4696 6.30262C30.2347 6.20198 28.8593 5.18436 28.6915 5.05017C28.6915 4.74264 28.6915 2.9031 28.6524 2.60676C29.1221 2.04763 29.6029 1.44936 30.0614 0.851085C30.7435 1.41022 33.8915 3.08761 34.814 3.57406H31.079C31.0547 3.3816 30.9684 3.20227 30.8333 3.0631C30.6982 2.92392 30.5214 2.83245 30.3298 2.80246V2.76891ZM27.1986 2.86955L28.233 2.83041C28.233 3.00374 28.3001 5.06694 28.2722 5.35769C27.9192 5.38096 27.5646 5.36408 27.2154 5.30737C27.249 4.92157 27.221 3.33922 27.1986 2.9031V2.86955ZM9.69222 32.2631C9.75087 32.297 9.8174 32.3148 9.88512 32.3148C9.95285 32.3148 10.0194 32.297 10.078 32.2631C10.5197 32.0451 11.3976 31.2791 13.9584 29.5849C14.0336 29.5441 14.0983 29.4865 14.1478 29.4167C14.1972 29.347 14.23 29.2668 14.2436 29.1823C14.2436 29.1823 14.3386 26.7948 14.2044 26.7165C13.7739 26.4482 12.527 25.5983 12.1692 25.6542C12.1244 25.6542 7.40537 28.5952 7.39419 28.735C7.34746 29.3452 7.33812 29.9576 7.36623 30.569C8.10381 31.1838 8.8808 31.7497 9.69222 32.2631ZM7.7073 29.1208C8.13783 29.4116 9.33997 30.2391 9.66986 30.4068V31.6816C7.5787 30.2838 7.71289 30.5186 7.72967 30.1049C7.73526 29.8756 7.71849 29.3389 7.7073 29.1208ZM9.8991 29.9427C9.86349 29.9691 9.82038 29.9833 9.77609 29.9833C9.73181 29.9833 9.68869 29.9691 9.65308 29.9427C9.56362 29.8868 8.31117 28.9922 7.97569 28.7518C12.3705 25.9561 12.2139 25.9226 12.4487 26.0064C12.5606 26.0512 13.0862 26.3866 13.7963 26.8563C12.9576 27.572 9.98297 29.8868 9.8991 29.9427ZM13.813 29.1991C13.6956 29.3109 10.6707 31.3182 9.99974 31.7543V30.3565C10.3967 30.0546 13.0191 27.997 13.8354 27.298C13.8578 29.1432 13.8913 29.1432 13.841 29.1991H13.813ZM71.6664 32.6042C72.7106 32.5798 73.7265 32.2599 74.5963 31.6816C75.0301 31.4083 75.3569 30.9941 75.5218 30.5086C75.6867 30.0231 75.6797 29.4956 75.5021 29.0146C75.8711 28.735 77.0509 27.7342 77.2801 27.5161C77.7554 27.5441 78.3089 26.6998 78.6053 26.2413C78.7283 26.0512 78.8904 25.8555 78.8065 25.6374C78.0517 24.8385 77.2528 24.0825 76.4135 23.3729C76.3573 23.3136 76.2845 23.2727 76.2046 23.2557C76.1247 23.2387 76.0415 23.2465 75.9661 23.2779C75.4093 23.8178 74.9074 24.4115 74.4677 25.0503C74.4484 25.1331 74.4583 25.22 74.4956 25.2963C74.4956 25.3355 73.7184 27.5888 73.6234 27.8628C73.2049 27.905 72.8164 28.0989 72.5311 28.4079C72.2458 28.7169 72.0834 29.1197 72.0746 29.5402C72.0075 31.1728 73.2991 31.6984 71.6161 32.3023C71.5928 32.3223 71.575 32.348 71.5645 32.377C71.554 32.4059 71.5511 32.4371 71.5562 32.4674C71.5612 32.4978 71.5741 32.5263 71.5934 32.5503C71.6127 32.5742 71.6378 32.5928 71.6664 32.6042ZM74.8982 25.151C75.2615 24.6173 75.6898 24.1309 76.173 23.7028C76.475 23.9432 78.2195 25.5535 78.4096 25.8163C78.2698 26.0568 77.487 27.0744 77.2913 27.0967C77.2745 27.08 74.9709 25.2181 74.8982 25.151ZM75.3008 28.6511C75.0157 28.2333 74.578 27.9442 74.0819 27.846C74.1937 27.4714 74.6019 26.1015 74.7416 25.548C75.1666 25.9114 76.2178 26.7948 76.8608 27.3036C76.6092 27.5552 75.6586 28.366 75.3008 28.6511ZM72.561 32.1625C72.9972 31.7655 72.8909 31.2455 72.6896 30.7479C72.3318 29.6296 72.438 28.9083 73.0363 28.5114C73.1907 28.4134 73.3631 28.3472 73.5434 28.3167C73.7237 28.2862 73.9083 28.2919 74.0863 28.3336C74.2644 28.3752 74.4323 28.4519 74.5804 28.5593C74.7284 28.6666 74.8536 28.8024 74.9485 28.9587C75.832 30.3509 74.1769 31.8438 72.561 32.1625ZM36.7095 3.8033C36.9387 3.8033 38.2806 3.62997 39.5051 3.50137C39.5481 3.50137 39.5894 3.48429 39.6198 3.45388C39.6502 3.42347 39.6673 3.38223 39.6673 3.33922C39.6673 3.29622 39.6502 3.25498 39.6198 3.22457C39.5894 3.19416 39.5481 3.17707 39.5051 3.17707C39.0467 3.22181 36.894 3.35041 36.6592 3.40073C36.6138 3.41586 36.5751 3.44623 36.5496 3.48669C36.5241 3.52715 36.5134 3.57519 36.5193 3.62264C36.5253 3.67009 36.5475 3.71402 36.5821 3.74696C36.6168 3.77989 36.6618 3.7998 36.7095 3.8033ZM41.0931 3.44546C41.244 3.44546 44.213 3.19944 44.8672 3.23299C45.0853 3.23299 45.1021 2.91428 44.8672 2.89751C43.5893 2.83519 42.3084 2.87633 41.0372 3.02052C40.9889 3.03636 40.9476 3.06857 40.9205 3.1116C40.8935 3.15463 40.8823 3.20577 40.8889 3.25618C40.8955 3.30658 40.9196 3.35308 40.9568 3.38764C40.9941 3.42221 41.0423 3.44266 41.0931 3.44546ZM46.5502 3.12675L48.9601 3.05966C49 3.0524 49.0361 3.03135 49.0621 3.00018C49.0881 2.96902 49.1024 2.92971 49.1024 2.88912C49.1024 2.84853 49.0881 2.80922 49.0621 2.77806C49.0361 2.7469 49 2.72585 48.9601 2.71859L46.5614 2.65149C46.5044 2.65879 46.4518 2.6863 46.4133 2.72901C46.3748 2.77173 46.3529 2.82683 46.3516 2.88432C46.3502 2.9418 46.3695 2.99787 46.4059 3.04235C46.4424 3.08683 46.4936 3.11678 46.5502 3.12675ZM50.8779 3.20503C51.9067 3.20503 55.6193 3.37836 56.5251 3.53492C56.7488 3.57965 56.8271 3.23299 56.6034 3.19385C54.7066 2.90541 52.7909 2.75962 50.8723 2.75773C50.813 2.75847 50.7564 2.78274 50.715 2.82521C50.6736 2.86768 50.6507 2.92486 50.6514 2.98417C50.6522 3.04349 50.6765 3.10008 50.7189 3.1415C50.7614 3.18292 50.8186 3.20577 50.8779 3.20503ZM58.3311 4.17233C59.8114 4.61014 61.1791 5.36363 62.3401 6.3809C62.519 6.54305 62.7706 6.28026 62.5973 6.11811C61.4245 4.99462 59.9972 4.17163 58.4374 3.71943C58.3809 3.71422 58.3245 3.72959 58.2785 3.76271C58.2325 3.79583 58.2001 3.84446 58.1871 3.89964C58.1742 3.95482 58.1816 4.01282 58.2081 4.06294C58.2346 4.11305 58.2783 4.15191 58.3311 4.17233ZM63.2906 11.6312C63.2443 11.6425 63.2037 11.6703 63.1764 11.7095C63.1492 11.7486 63.1372 11.7964 63.1427 11.8438C63.1481 11.8912 63.1708 11.9349 63.2062 11.9668C63.2417 11.9987 63.2876 12.0165 63.3354 12.017C64.0734 12.017 64.9401 11.1559 65.0128 9.96494C65.0854 8.77399 64.2691 7.81787 63.4863 7.01831C63.453 6.98421 63.4074 6.96475 63.3597 6.96423C63.312 6.9637 63.266 6.98215 63.2319 7.01552C63.1978 7.04888 63.1784 7.09443 63.1778 7.14214C63.1773 7.18985 63.1958 7.23582 63.2291 7.26992C64.1125 8.1869 64.5431 9.0256 64.5487 9.84193C64.5635 10.2367 64.4485 10.6255 64.2213 10.9486C63.9941 11.2718 63.6672 11.5116 63.2906 11.6312ZM57.1905 13.4483C57.7496 13.4483 61.4343 12.604 62.0438 12.4587C62.0864 12.4446 62.1222 12.415 62.1441 12.3757C62.1659 12.3364 62.1722 12.2904 62.1616 12.2467C62.151 12.203 62.1244 12.1649 62.0871 12.1399C62.0497 12.115 62.0043 12.105 61.9599 12.112C61.1268 12.3021 58.1857 12.8165 57.1514 12.9954C57.097 13.0074 57.0489 13.0387 57.016 13.0835C56.983 13.1284 56.9675 13.1836 56.9723 13.2391C56.9771 13.2945 57.0018 13.3463 57.042 13.3848C57.0821 13.4233 57.1349 13.4459 57.1905 13.4483ZM55.6752 13.0793C54.4843 13.2079 53.2374 13.3197 52.0353 13.4987C51.9848 13.5138 51.941 13.5459 51.9114 13.5895C51.8817 13.6332 51.8681 13.6857 51.8727 13.7382C51.8773 13.7908 51.8999 13.8402 51.9366 13.878C51.9734 13.9158 52.022 13.9398 52.0744 13.946C52.4155 13.946 55.1441 13.5881 55.692 13.521C55.9772 13.4819 55.9604 13.0402 55.6752 13.0793ZM47.2435 14.5107C47.5678 14.5107 49.8044 14.1472 50.3244 14.0746C50.368 14.0636 50.4061 14.037 50.4315 13.9999C50.4569 13.9628 50.4679 13.9177 50.4624 13.8731C50.4569 13.8285 50.4353 13.7874 50.4016 13.7575C50.368 13.7277 50.3246 13.7112 50.2796 13.7111C49.5975 13.7894 47.8698 13.9404 47.1988 14.0578C47.1442 14.07 47.0959 14.1018 47.0631 14.1472C47.0303 14.1925 47.0152 14.2483 47.0207 14.304C47.0262 14.3597 47.0519 14.4115 47.093 14.4496C47.134 14.4877 47.1876 14.5094 47.2435 14.5107ZM37.9116 15.3158C39.1082 15.3158 40.3327 15.1034 41.518 14.9915C41.764 14.9915 41.764 14.5834 41.518 14.6057C40.3271 14.7008 39.0802 14.7511 37.8781 14.9188C37.6376 14.9468 37.6656 15.3158 37.9116 15.3158ZM32.0184 15.8302C31.9693 15.8419 31.9261 15.871 31.897 15.9123C31.8679 15.9535 31.8549 16.0039 31.8604 16.0541C31.8659 16.1042 31.8895 16.1507 31.9269 16.1846C31.9642 16.2185 32.0126 16.2377 32.0631 16.2384C32.4433 16.2384 35.5129 15.7855 35.977 15.724C36.0259 15.7125 36.0687 15.6831 36.0971 15.6417C36.1254 15.6003 36.1372 15.5497 36.1302 15.5C36.1232 15.4503 36.0979 15.405 36.0592 15.373C36.0205 15.341 35.9713 15.3246 35.9211 15.327C35.1886 15.4165 32.639 15.7016 32.0184 15.8302ZM23.5028 17.4294C25.6727 16.974 27.8659 16.638 30.0726 16.4229C30.3633 16.4229 30.3522 15.9477 30.0726 15.9756C27.8383 16.1087 25.6217 16.4532 23.4525 17.0044C23.4044 17.0199 23.3632 17.0517 23.3359 17.0942C23.3086 17.1367 23.297 17.1874 23.3029 17.2376C23.3088 17.2877 23.332 17.3343 23.3685 17.3693C23.4049 17.4043 23.4524 17.4255 23.5028 17.4294ZM16.0216 20.3145C17.5126 19.4211 19.1412 18.7807 20.8413 18.419C21.1377 18.3575 21.0202 17.9102 20.7295 17.9717C18.9787 18.3193 17.301 18.9662 15.77 19.8839C15.722 19.9214 15.6893 19.9751 15.6778 20.0348C15.6664 20.0946 15.677 20.1566 15.7077 20.2091C15.7384 20.2617 15.7872 20.3013 15.8449 20.3207C15.9026 20.3401 15.9654 20.3379 16.0216 20.3145ZM11.2969 24.8099C11.9141 23.1478 13.1035 21.7601 14.6517 20.896C14.8586 20.7841 14.6853 20.4766 14.4728 20.5829C12.7871 21.4208 11.4923 22.88 10.8608 24.6533C10.7546 24.9665 11.1907 25.0895 11.2969 24.8099ZM12.5158 31.4971C12.3481 31.307 12.0797 31.5698 12.2363 31.7543C12.6277 32.2072 14.6909 33.7951 15.1102 33.7951C15.1542 33.7948 15.1969 33.78 15.2317 33.7531C15.2665 33.7262 15.2915 33.6886 15.3029 33.6461C15.3143 33.6036 15.3115 33.5585 15.2949 33.5178C15.2783 33.4771 15.2487 33.4429 15.2109 33.4205C14.2624 32.8526 13.3612 32.2094 12.5158 31.4971ZM20.3101 35.0812C19.048 34.9564 17.8127 34.6377 16.6478 34.1362C16.3906 34.0244 16.1782 34.4046 16.4409 34.5276C17.6515 35.1011 18.9575 35.446 20.2934 35.5452C20.6009 35.562 20.6009 35.1147 20.3101 35.0812ZM21.5235 35.8472C22.1721 35.9422 24.8167 36.3727 25.4877 36.4063C25.5433 36.4079 25.5975 36.3888 25.6397 36.3527C25.682 36.3166 25.7093 36.266 25.7162 36.2108C25.7232 36.1557 25.7094 36.0999 25.6775 36.0544C25.6456 36.0088 25.5979 35.9768 25.5436 35.9646C24.9006 35.8304 22.2783 35.5173 21.6297 35.4054C21.3669 35.3999 21.2607 35.8024 21.5235 35.8472ZM30.1397 36.5293C29.055 36.6256 27.9618 36.5348 26.9079 36.2609C26.864 36.2559 26.8198 36.2668 26.7833 36.2917C26.7468 36.3165 26.7204 36.3536 26.709 36.3962C26.6975 36.4388 26.7016 36.4841 26.7207 36.5239C26.7397 36.5638 26.7724 36.5954 26.8128 36.6132C27.901 36.9303 29.0379 37.0458 30.1676 36.9542C30.4192 36.9263 30.4137 36.5125 30.1397 36.5293ZM67.2996 33.784C68.4649 33.6563 69.6136 33.4071 70.7271 33.0403C70.9619 32.962 70.8613 32.593 70.6208 32.6657C69.5347 32.9814 68.4206 33.1911 67.294 33.2919C66.9697 33.3255 66.9753 33.8119 67.2996 33.784ZM62.1109 34.2089C62.0658 34.2233 62.027 34.2527 62.001 34.2922C61.975 34.3317 61.9633 34.3789 61.9679 34.426C61.9725 34.4731 61.993 34.5172 62.0262 34.5509C62.0593 34.5847 62.103 34.606 62.15 34.6115C62.5582 34.6115 65.3482 34.1194 65.8235 34.0523C66.0975 34.002 65.9912 33.605 65.7284 33.6442C64.2859 33.8511 63.2123 33.9964 62.1109 34.2089ZM60.6627 34.3822C59.2705 34.6283 57.867 34.7736 56.5363 34.9022C56.2456 34.9358 56.2567 35.3831 56.5363 35.3607C57.9448 35.2473 59.3463 35.0606 60.7354 34.8016C60.7629 34.7968 60.7892 34.7867 60.8129 34.7717C60.8365 34.7568 60.8569 34.7373 60.873 34.7145C60.8891 34.6916 60.9005 34.6658 60.9067 34.6386C60.9128 34.6113 60.9135 34.5831 60.9087 34.5556C60.904 34.528 60.8938 34.5017 60.8789 34.4781C60.8639 34.4545 60.8445 34.434 60.8216 34.418C60.7988 34.4019 60.773 34.3904 60.7457 34.3843C60.7184 34.3782 60.6902 34.3775 60.6627 34.3822ZM19.8125 54.3097C20.0585 54.3097 20.0697 53.963 19.8125 53.9295C18.6781 53.7605 17.525 53.7605 16.3906 53.9295C16.3369 53.9413 16.2896 53.973 16.2583 54.0182C16.227 54.0634 16.2139 54.1188 16.2216 54.1733C16.2294 54.2277 16.2575 54.2773 16.3002 54.3119C16.343 54.3465 16.3972 54.3637 16.4521 54.36C17.5685 54.2435 18.6931 54.2267 19.8125 54.3097ZM69.4579 54.0134C69.4114 54.0279 69.3714 54.058 69.3445 54.0986C69.3176 54.1391 69.3054 54.1876 69.31 54.2361C69.3146 54.2845 69.3356 54.3299 69.3697 54.3647C69.4037 54.3995 69.4487 54.4215 69.497 54.4271C69.5529 54.4271 72.4995 54.3433 73.2096 54.4271C73.3997 54.4551 73.4612 54.1643 73.2711 54.1364C72.0057 53.9886 70.7301 53.9475 69.4579 54.0134ZM67.9314 54.4551C67.9759 54.4551 68.0186 54.4374 68.05 54.4059C68.0815 54.3745 68.0992 54.3318 68.0992 54.2873C68.0992 54.2429 68.0815 54.2002 68.05 54.1687C68.0186 54.1373 67.9759 54.1196 67.9314 54.1196C67.1073 54.0661 66.2797 54.1244 65.4712 54.2929C65.2308 54.3433 65.2979 54.6955 65.5272 54.6955C66.3158 54.5177 67.1232 54.437 67.9314 54.4551ZM80.6573 61.3939C80.6125 61.6176 80.9368 61.7573 81.0319 61.5393C81.5127 60.4546 81.7532 58.7939 81.1493 57.6254C81.0319 57.4017 80.6964 57.5918 80.8082 57.8155C81.4848 59.1574 80.8362 60.5273 80.6573 61.3939ZM13.1365 78.1679C12.3498 78.8215 11.6918 79.616 11.1963 80.5106C11.1853 80.529 11.178 80.5493 11.1748 80.5705C11.1717 80.5917 11.1727 80.6133 11.1779 80.634C11.1884 80.676 11.2151 80.712 11.2522 80.7343C11.2893 80.7565 11.3337 80.7631 11.3756 80.7527C11.4176 80.7422 11.4536 80.7155 11.4759 80.6784C11.9874 79.8353 12.6421 79.0879 13.4105 78.4698C13.6341 78.3077 13.3601 78.0169 13.1365 78.1679ZM16.8715 74.8858C16.1054 75.4589 15.377 76.0808 14.6909 76.7477C14.6575 76.7818 14.639 76.8278 14.6396 76.8755C14.6401 76.9232 14.6596 76.9687 14.6937 77.0021C14.7278 77.0354 14.7737 77.0539 14.8214 77.0534C14.8691 77.0528 14.9147 77.0334 14.9481 76.9993C15.2612 76.6694 16.9442 75.3554 17.1119 75.2157C17.2796 75.0759 17.0784 74.8131 16.8715 74.8858ZM18.5489 73.8681C18.6663 73.8681 18.3196 73.98 20.4052 72.6045C20.4487 72.5744 20.4794 72.5292 20.4913 72.4777C20.5033 72.4261 20.4955 72.372 20.4697 72.3259C20.4438 72.2797 20.4017 72.2449 20.3515 72.2282C20.3013 72.2115 20.2467 72.2141 20.1983 72.2355C19.5821 72.6554 18.9938 73.1149 18.437 73.611C18.4183 73.6332 18.4061 73.6603 18.4019 73.6892C18.3977 73.718 18.4016 73.7475 18.4132 73.7742C18.4248 73.8009 18.4437 73.8239 18.4677 73.8405C18.4916 73.8571 18.5198 73.8667 18.5489 73.8681Z" fill="black"/>
<path d="M21.406 71.654C21.5513 71.7155 21.4563 71.654 23.2176 70.5357C23.1042 71.9397 23.1248 73.3514 23.2791 74.7515C22.4067 74.2774 21.5695 73.7412 20.7742 73.1468C20.6232 73.0294 20.4219 73.2419 20.5785 73.3705C21.4474 74.115 22.3832 74.7776 23.3741 75.3498C24.107 80.9159 26.9467 85.9889 31.3082 89.5238C29.3065 89.9935 28.0429 90.2563 27.5508 90.3066C27.3384 90.3066 27.3384 90.6533 27.5508 90.6533C28.0373 90.6533 31.1349 90.0494 31.7891 89.9152C39.8182 96.3061 50.3746 95.6798 58.0683 89.7922C59.6085 90.1994 61.1737 90.5057 62.7538 90.7092C62.8028 90.7055 62.849 90.6849 62.8846 90.651C62.9202 90.617 62.9429 90.5718 62.9488 90.5229C62.9547 90.4741 62.9436 90.4248 62.9172 90.3833C62.8908 90.3418 62.8508 90.3107 62.8041 90.2954C62.1108 90.178 60.165 89.809 58.4876 89.4623C62.6942 86.1308 65.4976 81.3421 66.3434 76.0431C66.5559 75.9089 66.7628 75.7636 66.9641 75.6126C67.1653 75.4616 66.9641 75.1094 66.746 75.2492L66.4273 75.4449C67.1094 69.5069 65.0183 63.5913 61.3224 59.1462C62.3736 57.9888 63.106 56.6189 62.6755 55.0981C63.2054 54.9365 63.7451 54.8095 64.2914 54.7178C64.5374 54.6843 64.448 54.3209 64.2131 54.3544C63.6468 54.4268 63.0863 54.5389 62.5357 54.6899C62.1273 53.6773 61.4259 52.8097 60.5215 52.1981C59.617 51.5865 58.5506 51.2588 57.4588 51.2568C58.352 50.3178 59.0074 49.1786 59.3702 47.9345C59.733 46.6904 59.7927 45.3775 59.5444 44.1055C58.51 39.3529 54.8141 34.8351 50.1621 32.2351C50.2761 31.6059 50.2416 30.9588 50.0615 30.3453C49.9385 29.7862 49.5695 29.596 49.1389 29.3165C48.9153 29.1711 48.7028 29.0369 48.468 28.9027C49.0849 27.9427 49.4076 26.8232 49.3961 25.6821C50.6542 25.5591 50.6989 23.7252 49.3178 23.4456C50.7213 16.859 38.5378 15.7408 39.2535 23.6581C39.0053 23.7289 38.7829 23.8701 38.6133 24.0646C38.4436 24.259 38.3339 24.4985 38.2973 24.754C38.2642 24.9291 38.2748 25.1097 38.3281 25.2798C38.3814 25.4499 38.4758 25.6042 38.6029 25.7292C38.7301 25.8541 38.886 25.9458 39.057 25.9961C39.2281 26.0464 39.4088 26.0538 39.5834 26.0176C39.532 26.7416 39.683 27.4656 40.0195 28.1088C39.7398 28.1731 39.4793 28.3029 39.2596 28.4876C39.0399 28.6723 38.8672 28.9066 38.7558 29.1711C38.508 29.8768 38.4596 30.6371 38.6161 31.3685C34.1709 33.3964 30.6169 36.9743 28.6188 41.4329C27.0364 45.0393 27.808 47.6784 30.6037 50.4293C29.3517 50.0255 27.9986 50.067 26.7736 50.5467C26.0054 50.8772 25.3184 51.3709 24.7603 51.9937C24.2022 52.6165 23.7864 53.3534 23.5419 54.1531C23.004 54.0671 22.4579 54.0446 21.9148 54.086C21.8776 54.093 21.8441 54.1128 21.82 54.1419C21.7958 54.171 21.7826 54.2076 21.7826 54.2454C21.7826 54.2832 21.7958 54.3198 21.82 54.3489C21.8441 54.378 21.8776 54.3977 21.9148 54.4047C22.4299 54.3828 22.9452 54.4432 23.4412 54.5837C23.0554 56.9376 25.0515 58.9281 26.9917 60.3259C24.9094 63.155 23.627 66.4923 23.2791 69.9877C22.623 70.3876 21.9901 70.8244 21.3836 71.2961C21.3517 71.315 21.3256 71.3424 21.3083 71.3751C21.2909 71.4079 21.2829 71.4449 21.2852 71.4819C21.2876 71.5189 21.3001 71.5546 21.3214 71.5849C21.3427 71.6153 21.3719 71.6392 21.406 71.654ZM46.1252 30.418L46.36 30.3453C46.4886 30.4795 46.8353 30.7814 47.0478 30.9603C45.3871 31.8326 43.3295 31.7599 41.1825 30.7143C41.4229 30.4962 41.8143 30.0993 41.9597 29.9315C42.3441 30.0788 42.7361 30.2057 43.1338 30.3117C43.2971 30.5537 43.5152 30.7537 43.7704 30.8952C44.0257 31.0368 44.3108 31.116 44.6025 31.1264C44.8942 31.1367 45.1842 31.078 45.4488 30.9548C45.7135 30.8317 45.9452 30.6478 46.1252 30.418ZM41.6521 29.775C41.462 29.9874 41.0371 30.4403 40.8973 30.5578C40.7408 30.472 40.5842 30.3826 40.4276 30.2894C40.3972 30.2708 40.3607 30.2651 40.3261 30.2735C40.2915 30.2819 40.2617 30.3037 40.2431 30.3341C40.2246 30.3645 40.2189 30.401 40.2273 30.4356C40.2357 30.4702 40.2575 30.5001 40.2879 30.5186C41.6465 31.3909 42.9717 32.0506 44.5764 32.0506C45.2265 32.0815 45.8753 31.9664 46.4751 31.7139C47.075 31.4614 47.6107 31.0778 48.043 30.5913C48.066 30.5676 48.0786 30.5357 48.0781 30.5027C48.0776 30.4696 48.064 30.4382 48.0402 30.4152C48.0165 30.3922 47.9846 30.3796 47.9516 30.3801C47.9186 30.3806 47.8871 30.3942 47.8641 30.418C47.7127 30.5429 47.554 30.6586 47.3888 30.7646C47.2379 30.636 46.8912 30.3565 46.7235 30.2055C47.2924 29.9908 47.8089 29.6572 48.2387 29.227C48.7978 29.4642 49.2994 29.8189 49.7092 30.267C49.9147 30.8761 49.9476 31.5302 49.8043 32.1569C49.2899 33.7448 45.1299 35.316 40.8582 33.085C39.3541 32.3302 38.7223 31.7096 38.9907 29.8309C39.0107 29.4987 39.1382 29.1822 39.3541 28.929C39.57 28.6758 39.8624 28.4997 40.1872 28.4275C40.5556 28.9917 41.0592 29.4549 41.6521 29.775ZM46.2035 34.5555C47.1149 34.4437 49.2787 34.03 50.0447 32.6154C54.4898 35.0755 59.125 40.5774 59.2313 45.5928C59.2695 46.6952 59.0493 47.7912 58.5881 48.7931C58.1269 49.7951 57.4376 50.6752 56.5754 51.3631C55.7845 51.5085 55.0267 51.7965 54.3388 52.2129C54.8309 44.6143 54.8477 45.0728 54.7917 45.0169C54.7358 44.961 53.8859 44.9554 52.4993 44.9219C52.6726 44.7038 53.1367 44.0887 53.243 43.9657C53.2689 43.9383 53.2829 43.9017 53.2818 43.8639C53.2808 43.8262 53.2648 43.7904 53.2374 43.7645C53.2099 43.7385 53.1733 43.7245 53.1356 43.7256C53.0978 43.7266 53.062 43.7426 53.0361 43.77C52.683 44.162 52.3097 44.5352 51.9178 44.8883H51.8004C51.943 43.1925 51.9804 41.4895 51.9122 39.789C51.9122 39.6548 51.6774 39.6548 51.6886 39.789C51.7445 40.5886 51.3699 44.1726 51.3251 44.8603C47.1596 44.7765 40.2152 44.7038 36.0217 44.6647C35.5078 42.9261 35.2904 41.1134 35.3787 39.3026C35.3787 39.1125 35.1103 39.1125 35.0935 39.3026C34.9127 41.1038 35.0624 42.9228 35.5352 44.6702H35.4178C34.8576 44.1101 34.3257 43.5223 33.8243 42.909C33.8039 42.881 33.7739 42.8616 33.7401 42.8544C33.7062 42.8473 33.6709 42.853 33.641 42.8703C33.6111 42.8877 33.5887 42.9156 33.5781 42.9486C33.5676 42.9815 33.5696 43.0172 33.5839 43.0488C33.6454 43.1662 34.3163 44.167 34.758 44.6926H32.5886C32.4265 44.6926 32.4768 44.6926 32.4656 44.8212C32.4097 45.453 32.611 48.942 32.7675 51.4246C32.4304 51.2143 32.0792 51.0275 31.7164 50.8654C28.8368 48.0362 27.3048 45.8332 28.8704 42.0535C30.7394 37.5012 34.2607 33.8241 38.7279 31.7599C39.3541 33.0962 42.5356 34.9917 46.2035 34.5555ZM32.8234 45.0896C33.4609 45.0896 53.0752 45.2629 54.4451 45.3859C54.1823 47.5889 53.6958 54.0972 53.5281 56.2834H52.3036C51.6103 56.8817 46.4663 61.1535 46.0972 61.4666C45.9686 61.5672 46.2035 61.6511 46.757 62.1487C47.1052 62.4043 47.3971 62.7288 47.6145 63.102C47.8319 63.4752 47.9701 63.8892 48.0207 64.3181C48.0221 64.3379 48.0309 64.3564 48.0455 64.3699C48.06 64.3834 48.0791 64.3909 48.0989 64.3908C50.0894 64.4747 51.7724 66.2471 50.3914 67.343C49.1221 68.3495 47.1596 67.343 46.1867 66.4149C47.0645 65.2687 47.5789 64.2678 46.5949 63.2334C46.4774 63.1104 45.2138 62.0816 43.6091 60.7732C37.5313 55.8137 38.0178 56.0933 37.9395 56.0933C37.6264 56.0933 34.3051 55.8641 33.7069 55.8305C33.2652 52.2521 32.9409 47.0242 32.8234 45.0896ZM38.672 67.1418C37.85 67.2033 36.469 67.3095 35.8763 66.4764C35.4905 65.9173 36.0664 65.2631 36.687 65.0842C38.0457 65.5762 40.1816 66.2639 40.8749 66.482C40.1851 66.8297 39.4394 67.0531 38.672 67.1418ZM35.7645 67.0299C36.3236 67.5891 37.2741 67.6562 38.0346 67.645C39.2753 67.6388 40.4923 67.3052 41.5627 66.6777C42.7872 67.0355 44.0005 67.343 45.2641 67.6114C45.2792 67.6166 45.2956 67.6167 45.3108 67.6117C45.326 67.6066 45.339 67.5967 45.348 67.5835C45.5605 67.3207 45.7674 67.0243 45.9575 66.7727C47.2435 67.9693 49.3905 68.7576 50.7101 67.74C51.683 66.9852 51.532 65.6936 50.5591 64.894C55.1887 63.5354 58.8734 61.584 60.9422 59.532C62.873 61.7459 64.302 64.3513 65.131 67.1695C65.9601 69.9877 66.1696 72.9519 65.7451 75.8586C64.564 76.6314 63.3414 77.3388 62.0828 77.9777C62.0524 77.9934 62.0283 78.0188 62.0142 78.05C62.0002 78.0812 61.9972 78.1161 62.0056 78.1493C62.0141 78.1824 62.0335 78.2116 62.0607 78.2323C62.0879 78.2529 62.1214 78.2637 62.1555 78.2629C62.2282 78.2629 64.4647 77.1838 65.6445 76.4849C64.6789 81.5375 61.9674 86.0896 57.9844 89.3449C57.0842 89.1548 56.307 88.9759 55.938 88.864C55.7367 88.7969 55.6472 89.0989 55.8429 89.1716C56.184 89.2946 56.8214 89.4679 57.5818 89.6636C53.9753 92.4118 49.5702 93.9076 45.0359 93.9237C40.5017 93.9399 36.0861 92.4755 32.46 89.7531C33.1302 89.613 33.7897 89.4262 34.4337 89.1939C34.6798 89.0877 34.5288 88.7243 34.2772 88.7802L31.9512 89.3393C27.6898 85.9189 24.8342 81.0515 23.9277 75.6629L24.0395 75.7133C24.2967 75.8251 24.498 75.4728 24.2575 75.333L23.8438 75.0926C23.1044 69.9893 24.3491 64.7967 27.3216 60.5831C30.106 62.3646 33.0898 63.8133 36.2118 64.8996C35.3284 65.3469 35.032 66.3087 35.7645 67.0299ZM49.1054 25.5367C48.988 26.655 48.8202 27.7733 48.1269 28.6343C47.7467 29.1096 46.9359 29.8141 46.2706 29.8309C45.8289 29.8309 45.6723 29.5737 45.3871 29.2717C45.0125 28.8356 44.828 28.6064 44.6267 28.6399C44.1794 28.6958 44.2577 29.5401 43.542 29.9595C43.3239 30.0825 42.5635 29.8644 41.982 29.5849C41.3004 29.2468 40.7385 28.7083 40.3717 28.0417C40.0049 27.375 39.8508 26.6122 39.93 25.8555C39.93 25.7213 39.7343 25.6374 39.656 25.6765C39.5345 25.7186 39.4043 25.7289 39.2777 25.7064C39.1511 25.684 39.0323 25.6296 38.9326 25.5484C38.8329 25.4672 38.7556 25.3619 38.708 25.2424C38.6605 25.1229 38.6442 24.9933 38.6608 24.8658C38.8733 23.7475 40.1257 24.0271 40.4556 24.6757C40.4666 24.692 40.483 24.704 40.502 24.7095C40.521 24.7149 40.5412 24.7135 40.5592 24.7055C40.5773 24.6975 40.5919 24.6834 40.6005 24.6657C40.6092 24.6479 40.6113 24.6277 40.6066 24.6086C40.3813 24.0208 40.3533 23.3756 40.5267 22.7705C40.7002 22.1653 41.0658 21.633 41.5683 21.2538C42.367 21.8084 43.3161 22.1056 44.2884 22.1056C45.2608 22.1056 46.2099 21.8084 47.0086 21.2538C48.0878 22.0925 48.1269 23.837 48.0486 24.4464C48.0477 24.4612 48.0503 24.476 48.0561 24.4895C48.062 24.5031 48.0709 24.5152 48.0822 24.5247C48.1772 24.5974 48.3338 24.4073 48.412 24.3178C48.5126 24.1617 48.6569 24.0387 48.8269 23.9641C48.997 23.8895 49.1852 23.8667 49.3682 23.8985C49.5509 23.9252 49.7175 24.018 49.8365 24.1592C49.9554 24.3005 50.0184 24.4805 50.0136 24.6651C50.0088 24.8497 49.9364 25.0262 49.8103 25.161C49.6841 25.2959 49.5129 25.3798 49.329 25.397C49.2899 25.3634 49.1166 25.4193 49.1054 25.5367Z" fill="black"/>
<path d="M41.0931 86.8624C41.0931 86.9351 41.149 86.9966 41.0931 86.8624C39.5136 87.5014 37.88 87.9973 36.2118 88.3441C36.0106 88.3832 36.0777 88.6796 36.2789 88.6572C38.0061 88.4628 39.6893 87.9849 41.2608 87.2426C41.4901 87.114 41.3391 86.7729 41.0931 86.8624ZM48.9209 84.4861C49.0551 84.4861 53.5841 82.708 54.0258 82.4229C54.2439 82.2775 54.0929 81.9029 53.8357 81.9979C53.3828 82.1657 49.782 83.8654 48.8818 84.1841C48.8489 84.1967 48.8213 84.2199 48.8032 84.2501C48.7852 84.2803 48.7778 84.3157 48.7824 84.3505C48.7869 84.3854 48.803 84.4177 48.8281 84.4423C48.8533 84.4669 48.886 84.4823 48.9209 84.4861ZM55.843 81.5227C55.9883 81.5227 59.7569 79.8061 60.1092 79.5377C60.2825 79.4036 60.1651 79.0849 59.9358 79.1743C59.5948 79.3029 56.5028 80.8517 55.7927 81.148C55.7529 81.1647 55.7198 81.1939 55.6984 81.2313C55.677 81.2686 55.6685 81.312 55.6742 81.3547C55.6799 81.3973 55.6996 81.4369 55.7301 81.4673C55.7606 81.4977 55.8003 81.5171 55.843 81.5227ZM66.8131 70.2841C67.1263 70.4854 68.2893 71.4024 68.6024 71.6037C68.6502 71.6314 68.7065 71.6409 68.7608 71.6303C68.8151 71.6198 68.8638 71.59 68.8979 71.5464C68.9319 71.5028 68.9491 71.4484 68.9462 71.3931C68.9432 71.3379 68.9204 71.2856 68.8819 71.2458C68.5856 70.9942 67.3052 70.1946 66.9865 70.0045C66.9494 69.9816 66.9047 69.9742 66.8623 69.9842C66.8198 69.9942 66.783 70.0206 66.76 70.0577C66.737 70.0947 66.7297 70.1394 66.7397 70.1819C66.7497 70.2244 66.7761 70.2611 66.8131 70.2841ZM73.8303 74.9249C73.6569 74.7851 73.4221 75.0367 73.601 75.1821C73.998 75.512 75.5747 76.9098 76.0109 77.2062C76.0571 77.229 76.1099 77.2352 76.1602 77.2236C76.2105 77.212 76.2552 77.1834 76.2868 77.1426C76.3184 77.1018 76.3349 77.0513 76.3335 76.9997C76.3322 76.9481 76.313 76.8986 76.2793 76.8595C75.9214 76.4905 74.2943 75.2939 73.8303 74.9249ZM77.4367 78.1343C77.4033 78.1017 77.3583 78.0837 77.3117 78.0842C77.265 78.0847 77.2205 78.1038 77.1878 78.1371C77.1552 78.1705 77.1372 78.2154 77.1377 78.2621C77.1382 78.3088 77.1573 78.3533 77.1906 78.3859C77.8927 79.0963 78.5238 79.8734 79.0749 80.7063C79.2538 80.9579 79.662 80.7063 79.4887 80.4491C78.9048 79.5943 78.2153 78.8165 77.4367 78.1343ZM69.6088 91.0279C68.8596 91.0279 65.6334 90.8154 64.8394 90.6533C64.8031 90.6444 64.7647 90.6503 64.7327 90.6697C64.7007 90.6891 64.6778 90.7204 64.6689 90.7567C64.66 90.7931 64.6659 90.8314 64.6853 90.8634C64.7047 90.8954 64.736 90.9184 64.7723 90.9273C66.3693 91.2275 67.9855 91.4143 69.6088 91.4864C69.6696 91.4864 69.7279 91.4622 69.7709 91.4193C69.8139 91.3763 69.8381 91.318 69.8381 91.2572C69.8381 91.1964 69.8139 91.138 69.7709 91.0951C69.7279 91.0521 69.6696 91.0279 69.6088 91.0279ZM49.6254 87.0078C49.4297 86.9127 49.2676 87.2034 49.4689 87.3041C50.8774 88.0155 52.3855 88.5094 53.9419 88.769C54.2439 88.8249 54.3613 88.3609 54.0538 88.3105C52.5241 88.0848 51.0336 87.6463 49.6254 87.0078ZM43.0724 86.6219C43.7713 86.471 45.1971 86.0628 45.4208 86.0293C45.6332 86.1131 46.9975 86.6275 47.7244 86.8009C47.7788 86.813 47.8359 86.8037 47.8837 86.7751C47.9316 86.7464 47.9666 86.7005 47.9817 86.6468C47.9967 86.5931 47.9906 86.5356 47.9646 86.4863C47.9386 86.437 47.8946 86.3995 47.8418 86.3815C47.2827 86.1802 46.7235 86.0125 46.1029 85.8224C46.5537 85.6726 46.9914 85.4855 47.4113 85.2633C47.4418 85.2306 47.4621 85.1897 47.4697 85.1457C47.4773 85.1016 47.4719 85.0563 47.454 85.0153C47.4362 84.9743 47.4068 84.9394 47.3694 84.9149C47.332 84.8904 47.2882 84.8774 47.2435 84.8775C46.6173 85.0899 46.0023 85.3583 45.3928 85.5931C44.6995 85.3471 44.0621 85.0955 43.4526 84.8271C43.2513 84.7377 43.0892 85.034 43.2961 85.1291C43.8049 85.3695 44.3137 85.5987 44.8169 85.8056C44.2225 86.012 43.6178 86.1874 43.0053 86.3312C42.9796 86.3499 42.96 86.3758 42.9488 86.4056C42.9377 86.4354 42.9356 86.4678 42.9427 86.4988C42.9499 86.5297 42.966 86.5579 42.989 86.5799C43.0121 86.6018 43.0411 86.6164 43.0724 86.6219ZM18.0457 71.0334C17.4865 70.5972 15.3898 68.7968 14.9257 68.3048C14.7747 68.1426 14.5231 68.3831 14.6741 68.5452C15.5867 69.6187 16.629 70.5747 17.7773 71.3912C18.0009 71.5422 18.2581 71.2011 18.0457 71.0334ZM11.4032 97.4915C11.0542 94.4047 10.4254 91.3561 9.52448 88.3832C10.0345 89.1546 10.821 89.7009 11.7219 89.9096C11.7604 89.926 11.8039 89.9263 11.8427 89.9106C11.8815 89.8948 11.9124 89.8643 11.9287 89.8258C11.9451 89.7872 11.9454 89.7438 11.9297 89.705C11.9139 89.6662 11.8834 89.6352 11.8449 89.6189C11.1292 89.1884 10.0277 88.7522 9.68663 87.7067C9.87322 87.3661 9.91919 86.966 9.81471 86.5919C9.71023 86.2179 9.46359 85.8996 9.1275 85.705C9.32866 84.5175 9.75369 83.379 10.38 82.3502C10.4526 82.2104 10.2625 82.065 10.1563 82.188C9.3584 83.1829 8.87038 84.3903 8.75288 85.6602C8.60731 85.6707 8.46411 85.7028 8.32794 85.7553C6.84655 81.9263 4.74189 78.3688 2.09921 75.2268C2.20094 75.0534 2.24047 74.8505 2.21126 74.6515C2.18205 74.4526 2.08585 74.2696 1.93855 74.1327C1.79125 73.9958 1.60167 73.9133 1.40113 73.8987C1.20059 73.8842 1.00108 73.9385 0.835568 74.0527C0.646707 74.1812 0.509418 74.3724 0.448016 74.5924C0.386613 74.8124 0.405059 75.0471 0.500089 75.2548C0.563416 75.3656 0.648528 75.4624 0.750291 75.5394C0.852053 75.6164 0.968358 75.672 1.09219 75.7028C1.21602 75.7336 1.34481 75.7391 1.4708 75.7188C1.59679 75.6985 1.71735 75.6529 1.82523 75.5847C4.41626 78.6912 6.49274 82.1929 7.97568 85.9566C7.0643 86.7617 7.85827 88.2714 9.00449 88.1484C9.94954 91.2253 10.6084 94.3829 10.9726 97.5809C10.8049 97.6699 10.6749 97.8163 10.6065 97.9934C10.5381 98.1706 10.5359 98.3664 10.6003 98.545C10.6647 98.7236 10.7914 98.8729 10.9572 98.9656C11.1229 99.0582 11.3164 99.088 11.5023 99.0494C11.6882 99.0107 11.8539 98.9063 11.969 98.7553C12.0841 98.6043 12.1408 98.4169 12.1287 98.2274C12.1167 98.0379 12.0366 97.8592 11.9033 97.724C11.77 97.5888 11.5924 97.5062 11.4032 97.4915ZM1.79727 74.8131C1.81691 74.8868 1.81934 74.964 1.80438 75.0388C1.78942 75.1136 1.75747 75.1839 1.711 75.2444C1.66453 75.3049 1.60477 75.3539 1.53636 75.3876C1.46794 75.4213 1.39269 75.4388 1.31642 75.4388C1.24015 75.4388 1.1649 75.4213 1.09648 75.3876C1.02807 75.3539 0.968316 75.3049 0.921843 75.2444C0.875369 75.1839 0.843418 75.1136 0.828459 75.0388C0.8135 74.964 0.815932 74.8868 0.835568 74.8131C0.815932 74.7394 0.8135 74.6622 0.828459 74.5874C0.843418 74.5126 0.875369 74.4422 0.921843 74.3818C0.968316 74.3213 1.02807 74.2723 1.09648 74.2386C1.1649 74.2049 1.24015 74.1873 1.31642 74.1873C1.39269 74.1873 1.46794 74.2049 1.53636 74.2386C1.60477 74.2723 1.66453 74.3213 1.711 74.3818C1.75747 74.4422 1.78942 74.5126 1.80438 74.5874C1.81934 74.6622 1.81691 74.7394 1.79727 74.8131ZM11.8617 98.2463C11.8617 98.8054 10.9391 98.8054 10.9391 98.2463C10.9391 97.6872 11.8393 97.7375 11.8393 98.2966L11.8617 98.2463ZM9.41265 87.2873C9.11072 88.2211 7.98687 87.5669 8.00364 86.8065C8.00364 86.1355 8.93739 85.6882 9.28964 86.3312C9.3799 86.4758 9.43588 86.6392 9.45333 86.8088C9.47077 86.9784 9.44921 87.1497 9.39029 87.3097L9.41265 87.2873ZM90.7328 64.799C90.73 64.6375 90.6824 64.4799 90.5953 64.3439C90.5082 64.2079 90.385 64.0987 90.2395 64.0285C90.094 63.9584 89.9318 63.93 89.7711 63.9466C89.6104 63.9632 89.4575 64.0241 89.3294 64.1225C86.1829 62.2803 83.477 59.7728 81.4009 56.7755C81.5526 56.6013 81.657 56.391 81.704 56.1648C81.751 55.9386 81.739 55.7041 81.6693 55.4839C81.6159 55.313 81.519 55.1589 81.3882 55.0366C81.2573 54.9144 81.097 54.8282 80.9229 54.7865C80.7488 54.7448 80.5668 54.749 80.3948 54.7987C80.2228 54.8484 80.0666 54.942 79.9416 55.0701C77.2507 51.4301 75.3275 47.2813 74.2887 42.8755C74.3937 42.7566 74.4579 42.6073 74.4719 42.4494C74.486 42.2915 74.4493 42.1332 74.367 41.9976C74.3052 41.8576 74.1996 41.7416 74.066 41.667C73.9324 41.5924 73.7781 41.5633 73.6265 41.5841C73.4749 41.605 73.3343 41.6746 73.2257 41.7825C73.1172 41.8904 73.0468 42.0307 73.0251 42.1821C72.9896 42.3094 72.9892 42.4439 73.0239 42.5714C73.0586 42.6989 73.1272 42.8146 73.2223 42.9063C73.3175 42.998 73.4356 43.0623 73.5643 43.0923C73.693 43.1223 73.8274 43.1169 73.9533 43.0767C74.9834 47.5334 76.9378 51.7241 79.69 55.3777C79.6312 55.4728 79.5878 55.5765 79.5614 55.6852C78.8513 55.3441 75.3231 54.2258 74.9541 54.3265C74.7976 54.3712 74.8702 54.5613 74.9541 54.5837C76.498 55.0103 78.0142 55.5313 79.4943 56.1437C79.5255 56.3149 79.5954 56.4767 79.6985 56.6169C79.8016 56.757 79.9353 56.8719 80.0894 56.9527C80.2435 57.0335 80.414 57.0782 80.588 57.0834C80.7619 57.0885 80.9348 57.054 81.0934 56.9824C83.643 60.6055 86.2542 63.0489 89.0722 64.4524C89.0119 64.5881 88.9863 64.7366 88.9977 64.8847C89.0091 65.0327 89.0572 65.1756 89.1377 65.3004C89.2181 65.4253 89.3283 65.5281 89.4585 65.5997C89.5886 65.6712 89.7344 65.7093 89.8829 65.7104C90.0014 65.7161 90.1197 65.6959 90.2296 65.6513C90.3395 65.6066 90.4383 65.5385 90.5192 65.4518C90.6001 65.365 90.6611 65.2617 90.698 65.149C90.7349 65.0362 90.7468 64.9168 90.7328 64.799ZM89.4915 65.0786C89.4435 65.0077 89.4148 64.9255 89.4083 64.8401C89.4018 64.7547 89.4177 64.6691 89.4544 64.5917C89.4911 64.5144 89.5473 64.4479 89.6176 64.399C89.6879 64.35 89.7697 64.3202 89.855 64.3126C89.989 64.3169 90.1162 64.3728 90.2099 64.4687C90.3037 64.5645 90.3568 64.6929 90.3582 64.827C90.3583 64.9288 90.3254 65.0279 90.2643 65.1094C90.2032 65.1909 90.1173 65.2503 90.0195 65.2787C89.9217 65.307 89.8173 65.3029 89.7221 65.2668C89.6269 65.2307 89.546 65.1647 89.4915 65.0786ZM80.9256 56.6581C80.7529 56.7138 80.5664 56.7099 80.3961 56.6471C80.2257 56.5842 80.0815 56.466 79.9863 56.3114C79.934 56.1871 79.9124 56.052 79.9235 55.9175C79.9345 55.7831 79.9778 55.6533 80.0497 55.5392C80.1216 55.425 80.2199 55.3299 80.3364 55.2619C80.4529 55.1939 80.584 55.1549 80.7188 55.1484C81.4344 55.1484 81.5575 56.3953 80.9256 56.6581ZM74.1098 42.3834C74.1163 42.4361 74.1115 42.4895 74.0958 42.5402C74.08 42.5908 74.0537 42.6376 74.0186 42.6773C73.9834 42.7171 73.9402 42.7489 73.8919 42.7707C73.8435 42.7925 73.791 42.8037 73.738 42.8037C73.6849 42.8037 73.6325 42.7925 73.5841 42.7707C73.5358 42.7489 73.4926 42.7171 73.4574 42.6773C73.4223 42.6376 73.396 42.5908 73.3802 42.5402C73.3645 42.4895 73.3597 42.4361 73.3662 42.3834C73.3597 42.3308 73.3645 42.2773 73.3802 42.2267C73.396 42.176 73.4223 42.1293 73.4574 42.0895C73.4926 42.0498 73.5358 42.018 73.5841 41.9962C73.6325 41.9744 73.6849 41.9631 73.738 41.9631C73.791 41.9631 73.8435 41.9744 73.8919 41.9962C73.9402 42.018 73.9834 42.0498 74.0186 42.0895C74.0537 42.1293 74.08 42.176 74.0958 42.2267C74.1115 42.2773 74.1163 42.3308 74.1098 42.3834ZM83.028 87.88C83.0434 87.8409 83.0446 87.7976 83.0313 87.7578C83.018 87.7179 82.9911 87.684 82.9553 87.6619C82.6757 87.4886 82.2172 87.7794 82.139 88.1092C82.3291 88.126 82.9106 88.1036 83.028 87.88Z" fill="black"/>
<path d="M81.6972 84.1842C81.3338 83.415 80.9249 82.6682 80.4727 81.9476C80.4477 81.9109 80.4097 81.8852 80.3663 81.8757C80.323 81.8662 80.2777 81.8737 80.2397 81.8967C80.2017 81.9196 80.174 81.9562 80.1622 81.999C80.1504 82.0417 80.1555 82.0874 80.1763 82.1266C80.5533 82.789 80.8804 83.4787 81.1548 84.1898C80.5309 84.2576 79.9378 84.496 79.4405 84.8788C78.9432 85.2616 78.561 85.7739 78.3357 86.3596C78.1104 86.9454 78.0508 87.5818 78.1635 88.1992C78.2761 88.8165 78.5566 89.3909 78.9742 89.8594C77.0394 90.6123 74.9932 91.0393 72.9188 91.123C72.8816 91.13 72.8481 91.1497 72.824 91.1788C72.7998 91.2079 72.7866 91.2445 72.7866 91.2823C72.7866 91.3201 72.7998 91.3568 72.824 91.3859C72.8481 91.415 72.8816 91.4347 72.9188 91.4417C75.1306 91.4887 77.3286 91.0814 79.3768 90.2452C79.7957 90.5776 80.2871 90.8066 80.8111 90.9137C81.3351 91.0208 81.877 91.003 82.3928 90.8617C82.9086 90.7203 83.3839 90.4595 83.7801 90.1003C84.1764 89.7411 84.4824 89.2936 84.6735 88.794C84.8645 88.2945 84.9353 87.757 84.8799 87.225C84.8245 86.6931 84.6446 86.1817 84.3548 85.7322C84.0649 85.2827 83.6733 84.9078 83.2116 84.6379C82.7498 84.368 82.231 84.2106 81.6972 84.1786V84.1842ZM80.9871 89.3505C80.9312 88.9759 80.9088 88.5957 80.8417 88.2323H80.0198C79.9694 88.5622 79.9694 88.8921 79.9191 89.2219C79.9162 89.2454 79.9086 89.2681 79.8969 89.2887C79.8852 89.3093 79.8696 89.3274 79.8509 89.3419C79.8322 89.3564 79.8108 89.3672 79.788 89.3734C79.7652 89.3797 79.7413 89.3814 79.7178 89.3785C79.6943 89.3756 79.6716 89.368 79.6511 89.3563C79.6305 89.3446 79.6124 89.329 79.5979 89.3103C79.5833 89.2916 79.5726 89.2702 79.5663 89.2474C79.5601 89.2246 79.5583 89.2007 79.5613 89.1772C79.5613 88.8082 79.8688 86.4598 79.9303 86.1299C80.0086 85.6659 80.2546 85.6267 80.3944 85.6435C80.6851 85.677 80.7634 85.979 80.8249 86.2026C80.9871 86.8009 81.384 88.6237 81.4847 89.2275C81.5294 89.5295 81.0374 89.6525 80.9871 89.3505ZM83.4976 88.92C82.5974 89.5462 81.4623 88.797 81.8202 87.9304C82.0494 87.3712 82.9384 86.991 83.313 87.5725C83.3581 87.6665 83.3803 87.7698 83.3777 87.874C83.3751 87.9782 83.3479 88.0803 83.2982 88.172C83.2486 88.2636 83.178 88.3422 83.0921 88.4013C83.0062 88.4603 82.9076 88.4982 82.8042 88.5118C82.6187 88.5363 82.4307 88.5363 82.2451 88.5118C82.3159 88.5901 82.399 88.6562 82.4911 88.7075C83.0503 88.9424 83.4249 88.523 83.5367 88.7579C83.5454 88.7815 83.5463 88.8073 83.5393 88.8314C83.5322 88.8556 83.5176 88.8768 83.4976 88.8921V88.92Z" fill="black"/>
<path d="M80.3106 86.2361C80.2267 86.6611 80.1316 87.4215 80.0869 87.7737H80.7523C80.6908 87.4886 80.5286 86.689 80.4168 86.2529C80.4 86.1802 80.3217 86.1634 80.3106 86.2361ZM31.8674 77.8659C31.5319 77.6646 30.7938 77.6423 30.7491 78.084C30.7156 78.33 30.7491 79.3141 30.7491 79.5769C31.0042 79.5695 31.255 79.5095 31.4859 79.4008C31.7168 79.2921 31.9228 79.1369 32.091 78.9451C32.1539 78.8618 32.1983 78.7661 32.2213 78.6643C32.2442 78.5625 32.2451 78.457 32.2239 78.3548C32.2027 78.2526 32.16 78.1561 32.0985 78.0718C32.037 77.9875 31.9582 77.9173 31.8674 77.8659Z" fill="black"/>
<path d="M41.4229 83.9437C39.8774 83.3777 38.3653 82.7243 36.8939 81.9868C37.1876 81.3865 37.3602 80.7343 37.4019 80.0673C37.4435 79.4004 37.3534 78.7317 37.1366 78.0996C36.9198 77.4675 36.5807 76.8842 36.1385 76.3832C35.6963 75.8821 35.1598 75.4731 34.5596 75.1794C33.9593 74.8856 33.3071 74.713 32.6401 74.6714C31.9731 74.6298 31.3045 74.7199 30.6724 74.9367C30.0402 75.1534 29.457 75.4926 28.9559 75.9348C28.4549 76.3769 28.0458 76.9135 27.7521 77.5137C27.0756 77.1536 26.4187 76.7579 25.784 76.3284C25.6107 76.2165 25.4485 76.4793 25.6106 76.5968C26.3655 77.1559 26.9973 77.5473 27.5844 77.9051C25.5771 83.7648 33.377 87.5166 36.6982 82.3279C38.1558 83.1555 39.7162 83.7871 41.339 84.2065C41.3718 84.2114 41.4052 84.2044 41.4334 84.1868C41.4615 84.1693 41.4824 84.1423 41.4925 84.1107C41.5026 84.0792 41.5011 84.0451 41.4884 84.0145C41.4756 83.9839 41.4524 83.9588 41.4229 83.9437ZM32.4768 79.4707C32.0239 79.9047 31.4264 80.1557 30.7994 80.1752V81.7408C30.7994 81.8045 30.7741 81.8657 30.729 81.9108C30.6839 81.9559 30.6227 81.9812 30.559 81.9812C30.4952 81.9812 30.434 81.9559 30.389 81.9108C30.3439 81.8657 30.3185 81.8045 30.3185 81.7408C30.3185 81.4724 30.2235 79.2526 30.2179 79.0737C30.2179 78.5146 30.0054 77.5585 30.777 77.2509C32.1972 76.6527 33.5391 78.2238 32.4488 79.4651L32.4768 79.4707ZM35.0488 81.1481C34.9705 82.0427 33.7684 82.4285 33.0527 81.8973C33.0017 81.8571 32.9674 81.7993 32.9565 81.7353C32.9455 81.6712 32.9587 81.6054 32.9934 81.5505C33.0282 81.4956 33.0821 81.4555 33.1446 81.438C33.2072 81.4205 33.2741 81.4267 33.3323 81.4556C33.4941 81.564 33.6887 81.6127 33.8825 81.5934C34.0764 81.574 34.2574 81.4877 34.3946 81.3494C34.5624 81.176 34.4953 80.8294 34.2213 80.8685C34.0089 80.9292 33.7874 80.9519 33.5671 80.9356C33.4554 80.9097 33.352 80.8564 33.2659 80.7807C33.1799 80.7049 33.114 80.609 33.0741 80.5015C33.0342 80.3941 33.0216 80.2784 33.0373 80.1648C33.0531 80.0513 33.0968 79.9434 33.1645 79.8509C33.2589 79.7175 33.3834 79.6083 33.5279 79.532C33.6723 79.4557 33.8328 79.4145 33.9961 79.4118C34.1595 79.4091 34.3212 79.4449 34.4682 79.5163C34.6151 79.5877 34.7431 79.6928 34.8419 79.8229C35.0097 80.041 34.663 80.3038 34.4953 80.0913C34.4171 80.0005 34.3137 79.935 34.1982 79.9032C34.0827 79.8713 33.9603 79.8745 33.8467 79.9124C33.3602 80.0913 33.6677 80.5722 33.992 80.4715C34.0647 80.4492 35.0935 80.287 35.0208 81.1257L35.0488 81.1481ZM80.3217 62.5514C80.1406 62.9648 79.9333 63.3664 79.7011 63.7535C79.263 63.1447 78.6958 62.6403 78.0399 62.2763C77.3841 61.9124 76.656 61.6979 75.9076 61.6483C75.1592 61.5987 74.4091 61.7152 73.711 61.9894C73.0129 62.2635 72.384 62.6887 71.8694 63.2343C71.3548 63.78 70.9672 64.4327 70.7343 65.1456C70.5015 65.8586 70.4291 66.6142 70.5225 67.3584C70.6158 68.1027 70.8725 68.817 71.2742 69.4504C71.6759 70.0838 72.2127 70.6205 72.8461 71.0222C72.287 71.5198 71.1296 72.4033 70.8948 72.5878L70.481 72.3977C70.2965 72.3138 70.1455 72.5878 70.3356 72.6772C70.4218 72.7174 70.5058 72.7622 70.5872 72.8114C69.8833 73.322 69.1536 73.796 68.401 74.2316C68.3617 74.2539 68.3329 74.2908 68.3208 74.3343C68.3088 74.3778 68.3145 74.4244 68.3367 74.4637C68.359 74.503 68.3959 74.5318 68.4394 74.5439C68.4829 74.5559 68.5295 74.5502 68.5688 74.528C69.4913 74.0136 70.2853 73.5271 70.9842 73.0519C71.4946 73.4068 71.9701 73.8093 72.4044 74.254C72.4482 74.2884 72.5031 74.3056 72.5587 74.3025C72.6143 74.2994 72.6669 74.2762 72.7066 74.2371C72.7463 74.1981 72.7705 74.1459 72.7745 74.0904C72.7786 74.0348 72.7623 73.9797 72.7287 73.9353C72.2927 73.5242 71.8233 73.1502 71.3253 72.817C71.6664 72.571 72.7567 71.7603 73.3046 71.2794C74.2824 71.7606 75.3886 71.9155 76.4609 71.7214C77.5332 71.5273 78.515 70.9945 79.2621 70.2011C80.0092 69.4078 80.4821 68.3957 80.6114 67.3137C80.7408 66.2317 80.5197 65.1367 79.9806 64.1896C80.2684 63.7093 80.5081 63.2017 80.6963 62.6744C80.7914 62.4339 80.4168 62.3165 80.3217 62.5514ZM75.6194 68.7801C75.5072 68.4022 75.4194 68.0174 75.3566 67.6283L74.1769 67.7457C74.1098 68.0979 74.0427 68.4502 73.9868 68.8025C73.9308 69.1547 73.4724 69.0093 73.5171 68.7074C73.6177 67.9638 74.216 64.7935 74.3334 64.4915C74.6633 63.843 75.1609 64.2903 75.4517 65.0227C75.7337 66.2353 75.9539 67.4613 76.1115 68.6962C76.1226 68.7615 76.1073 68.8285 76.069 68.8825C76.0308 68.9365 75.9726 68.973 75.9074 68.9842C75.8421 68.9953 75.7751 68.98 75.7211 68.9418C75.6671 68.9035 75.6305 68.8453 75.6194 68.7801ZM76.5755 65.1513C76.6039 65.0853 76.6458 65.0261 76.6987 64.9774C76.7515 64.9288 76.8141 64.892 76.8822 64.8692C76.9503 64.8465 77.0225 64.8385 77.094 64.8457C77.1654 64.8529 77.2346 64.8751 77.2968 64.9109C77.3523 64.9481 77.3992 64.9969 77.4341 65.0539C77.469 65.1109 77.4912 65.1747 77.4992 65.2411C77.5072 65.3075 77.5007 65.3748 77.4802 65.4384C77.4598 65.502 77.4258 65.5605 77.3807 65.6098C77.3105 65.696 77.2121 65.7546 77.1028 65.7751C76.9935 65.7955 76.8805 65.7766 76.7839 65.7216C76.6873 65.6665 76.6134 65.579 76.5752 65.4746C76.5371 65.3702 76.5372 65.2557 76.5755 65.1513ZM77.5484 68.7242C77.5475 68.7883 77.5236 68.85 77.4811 68.898C77.4387 68.9461 77.3804 68.9774 77.3168 68.9861C77.2533 68.9949 77.1887 68.9807 77.1348 68.946C77.0808 68.9112 77.0411 68.8583 77.0228 68.7969C76.9781 68.6739 76.8942 66.9517 76.8942 66.7504C76.8942 66.6926 76.9172 66.6371 76.9581 66.5962C76.999 66.5554 77.0545 66.5324 77.1123 66.5324C77.1701 66.5324 77.2256 66.5554 77.2665 66.5962C77.3074 66.6371 77.3304 66.6926 77.3304 66.7504C77.3471 67.0691 77.554 68.6291 77.5484 68.7242Z" fill="black"/>
<path d="M74.2887 67.1921L75.2616 67.0859C75.1642 66.404 74.9993 65.7335 74.7695 65.0842C74.6409 65.6433 74.4061 66.6385 74.2887 67.1921ZM20.4051 91.2739C19.9355 91.5535 20.3213 92.3139 20.9643 92.0287C20.9643 91.6597 20.9307 91.3857 20.9195 91.2571C20.8387 91.2185 20.7498 91.1999 20.6603 91.2028C20.5708 91.2057 20.4833 91.2301 20.4051 91.2739Z" fill="black"/>
<path d="M25.8064 90.5638C24.8809 90.7087 23.9471 90.7946 23.0107 90.821C22.7591 86.4207 16.4633 86.4151 16.2061 90.821C15.2347 90.7272 14.2787 90.5131 13.3601 90.1836C13.3428 90.1748 13.324 90.1695 13.3047 90.1679C13.2854 90.1664 13.266 90.1687 13.2475 90.1747C13.2291 90.1806 13.212 90.1902 13.1973 90.2027C13.1825 90.2153 13.1704 90.2306 13.1616 90.2479C13.1528 90.2652 13.1475 90.284 13.1459 90.3033C13.1444 90.3226 13.1467 90.342 13.1526 90.3605C13.1586 90.3789 13.1682 90.396 13.1807 90.4107C13.1933 90.4255 13.2087 90.4376 13.2259 90.4464C14.1576 90.9397 15.1784 91.2419 16.2284 91.3354C16.3343 92.1563 16.7355 92.9105 17.357 93.4571C17.9786 94.0036 18.7779 94.3051 19.6056 94.3051C20.4333 94.3051 21.2326 94.0036 21.8542 93.4571C22.4757 92.9105 22.8769 92.1563 22.9828 91.3354C23.9563 91.2362 24.9233 91.0812 25.8791 90.8713C25.9119 90.8551 25.9383 90.8282 25.954 90.795C25.9696 90.7618 25.9735 90.7244 25.965 90.6887C25.9566 90.653 25.9363 90.6212 25.9075 90.5985C25.8787 90.5759 25.843 90.5636 25.8064 90.5638ZM19.0968 92.3474C19.0892 92.3853 19.0737 92.421 19.0513 92.4524C19.0289 92.4838 19.0002 92.5102 18.9669 92.5297C18.9337 92.5492 18.8967 92.5615 18.8584 92.5657C18.82 92.57 18.7813 92.5661 18.7445 92.5543C18.5768 92.504 18.6048 92.4089 18.3364 92.0287C18.2525 92.1685 18.1686 92.3139 18.0904 92.4593C18.0597 92.5093 18.011 92.5457 17.9543 92.5609C17.8977 92.5762 17.8373 92.5691 17.7857 92.5411C17.7341 92.5131 17.6952 92.4665 17.6769 92.4107C17.6587 92.3549 17.6626 92.2942 17.6878 92.2412C17.794 92.0399 17.9003 91.833 18.0177 91.6318C17.8797 91.4881 17.7259 91.3605 17.5592 91.2515C17.5045 91.2131 17.4665 91.1553 17.4529 91.0899C17.4394 91.0244 17.4513 90.9563 17.4862 90.8993C17.5211 90.8423 17.5764 90.8007 17.6409 90.7831C17.7053 90.7654 17.7741 90.773 17.8332 90.8042C18.5321 91.2348 18.1015 91.2851 18.6327 90.6253C18.8508 90.3569 19.2645 90.6868 19.0856 90.9608C18.9626 91.1509 18.806 91.3466 18.6719 91.5199C18.9458 91.8722 19.1248 92.1462 19.0912 92.3474H19.0968ZM21.4787 92.4145C21.3597 92.5219 21.219 92.6024 21.0661 92.6507C20.9133 92.6989 20.7518 92.7137 20.5928 92.6941C20.4337 92.6745 20.2807 92.6209 20.1441 92.5369C20.0076 92.453 19.8907 92.3407 19.8013 92.2077C19.6875 92.0396 19.6271 91.8411 19.6281 91.6382C19.6291 91.4352 19.6914 91.2373 19.8069 91.0704C19.9224 90.9035 20.0857 90.7755 20.2752 90.703C20.4648 90.6306 20.6719 90.6171 20.8692 90.6645C20.8209 90.06 20.8041 89.4535 20.8189 88.8473C20.8198 88.7826 20.8445 88.7205 20.8883 88.6728C20.9321 88.6252 20.992 88.5954 21.0564 88.5892C21.1208 88.583 21.1852 88.6007 21.2374 88.6391C21.2895 88.6774 21.3257 88.7336 21.3389 88.797C21.4563 89.5294 21.5458 91.6765 21.557 91.9225C21.5682 92.0511 21.6241 92.2636 21.4731 92.4145H21.4787ZM11.0285 59.3587C11.1292 59.3587 11.1571 59.3587 11.1627 59.3251C11.1627 59.2301 10.9726 57.972 10.9502 57.821C9.36231 58.0391 9.56359 59.504 11.0285 59.3587Z" fill="black"/>
<path d="M14.9815 54.0581C14.3186 54.149 13.6615 54.2778 13.0134 54.4439C12.4922 53.9377 11.8567 53.5645 11.1607 53.3558C10.4648 53.1472 9.72878 53.1093 9.01506 53.2453C8.30133 53.3813 7.63088 53.6873 7.06042 54.1372C6.48996 54.5872 6.03629 55.168 5.7378 55.8304C5.43931 56.4928 5.30477 57.2174 5.34558 57.9428C5.38639 58.6682 5.60135 59.3731 5.97226 59.9979C6.34316 60.6226 6.85911 61.1489 7.47644 61.532C8.09376 61.9152 8.7943 62.144 9.51878 62.1991C10.1496 63.9752 11.2489 65.5478 12.7002 66.7504C12.7135 66.7633 12.7291 66.7734 12.7462 66.7802C12.7633 66.787 12.7816 66.7904 12.8001 66.7901C12.8185 66.7899 12.8367 66.786 12.8536 66.7787C12.8706 66.7714 12.8859 66.7608 12.8987 66.7476C12.9116 66.7344 12.9217 66.7188 12.9285 66.7016C12.9353 66.6845 12.9387 66.6662 12.9384 66.6478C12.9382 66.6294 12.9343 66.6112 12.927 66.5942C12.9197 66.5773 12.9092 66.562 12.8959 66.5491C11.6855 65.2823 10.7054 63.814 9.99963 62.2103C10.8423 62.1785 11.6596 61.9126 12.3597 61.4425C13.0598 60.9724 13.6151 60.3165 13.9634 59.5485C14.3118 58.7805 14.4393 57.9306 14.3317 57.0942C14.2241 56.2578 13.8857 55.4678 13.3544 54.8129C13.9471 54.6564 14.4727 54.5166 15.0318 54.4104C15.3002 54.3656 15.2051 54.0134 14.9815 54.0581ZM8.00353 59.7165V55.5566C8.01215 55.5012 8.04027 55.4508 8.08282 55.4143C8.12537 55.3779 8.17955 55.3579 8.23557 55.3579C8.29159 55.3579 8.34577 55.3779 8.38832 55.4143C8.43087 55.4508 8.45899 55.5012 8.46761 55.5566C8.46761 56.3841 8.56266 59.1574 8.57943 59.7165C8.56012 59.7778 8.52179 59.8313 8.47001 59.8692C8.41823 59.9072 8.35569 59.9277 8.29148 59.9277C8.22727 59.9277 8.16473 59.9072 8.11295 59.8692C8.06117 59.8313 8.02284 59.7778 8.00353 59.7165ZM11.4254 59.7724C10.3072 60.3707 8.81427 59.3028 9.51878 58.0559C9.67326 57.8339 9.88013 57.6535 10.121 57.5306C10.3619 57.4077 10.6294 57.3462 10.8998 57.3514C10.8064 56.7422 10.7504 56.1279 10.7321 55.5119C10.735 55.4513 10.7593 55.3937 10.8006 55.3492C10.8419 55.3048 10.8976 55.2764 10.9578 55.2691C11.018 55.2617 11.0789 55.2759 11.1297 55.309C11.1804 55.3422 11.2179 55.3923 11.2353 55.4504C11.3304 55.8529 11.5987 58.5312 11.6267 58.8834C11.6379 59.1574 11.7609 59.5656 11.4254 59.7445V59.7724Z" fill="black"/>
</svg>
