<svg width="77" height="107" viewBox="0 0 77 107" fill="none" xmlns="http://www.w3.org/2000/svg">
<path fill-rule="evenodd" clip-rule="evenodd" d="M31.4875 45.7835C31.4092 45.9345 31.1799 47.4609 32.0801 47.4609C32.2374 47.4613 32.3895 47.4049 32.5086 47.3022C32.6277 47.1996 32.7059 47.0574 32.7287 46.9018C32.9188 45.1909 31.8006 45.1964 31.4875 45.7835ZM39.5949 45.7612C39.6452 46.3539 39.7123 46.8794 40.305 46.8794C40.4622 46.8798 40.6143 46.8234 40.7335 46.7207C40.8526 46.6181 40.9307 46.4759 40.9536 46.3203C40.9656 45.9605 40.9261 45.6009 40.8361 45.2524C40.5118 44.6541 39.511 44.7995 39.5949 45.7612ZM35.6809 51.1624C35.8543 51.1624 37.3583 51.0897 37.7106 50.8157C37.8168 50.7374 37.8056 50.5865 37.8056 50.4467C37.7721 48.8607 37.6189 47.2794 37.3472 45.7164C37.3472 45.6326 37.2745 45.6158 37.2297 45.627C37.185 45.6382 37.1626 45.7164 37.1682 45.8506C37.1682 46.3091 37.1291 46.4657 37.2912 49.0321C37.3975 50.7095 37.3527 50.2398 37.3863 50.5194C36.862 50.7115 36.3236 50.8629 35.776 50.9723C35.4126 51.0506 35.6698 51.1624 35.6809 51.1624ZM37.4478 55.0316C37.033 55.254 36.5755 55.3855 36.1059 55.4174C36.0822 55.4174 36.0594 55.4268 36.0426 55.4436C36.0258 55.4604 36.0164 55.4831 36.0164 55.5068C36.0164 55.5306 36.0258 55.5533 36.0426 55.5701C36.0594 55.5869 36.0822 55.5963 36.1059 55.5963C36.3686 55.6908 36.6492 55.7248 36.9268 55.6958C37.2045 55.6668 37.472 55.5756 37.7095 55.4289C37.9471 55.2822 38.1484 55.0838 38.2986 54.8485C38.4489 54.6132 38.5441 54.3471 38.5772 54.0699C38.5802 54.0585 38.5809 54.0466 38.5792 54.035C38.5776 54.0234 38.5737 54.0122 38.5677 54.002C38.5617 53.9919 38.5538 53.9831 38.5444 53.976C38.535 53.9689 38.5243 53.9638 38.513 53.9608C38.5016 53.9579 38.4897 53.9572 38.4781 53.9589C38.4664 53.9605 38.4552 53.9644 38.4451 53.9704C38.435 53.9764 38.4261 53.9843 38.4191 53.9937C38.412 54.0031 38.4069 54.0138 38.4039 54.0251C38.1775 54.4376 37.8481 54.7843 37.4478 55.0316ZM12.3875 11.9113C13.8245 16.7143 18.907 16.4794 19.4997 16.8373C19.4997 16.8932 20.6627 21.3718 21.1323 21.9869C21.3951 22.328 22.0269 22.1938 22.4463 22.1155C23.4304 21.9198 24.571 21.8583 25.4041 21.1929C25.6166 21.0196 25.4936 20.3151 25.4376 20.0746C25.2597 19.0693 25.0131 18.0773 24.6996 17.1057C24.5763 16.8125 24.4717 16.5118 24.3865 16.2055C24.7723 15.8637 25.192 15.562 25.6389 15.3053C26.3767 14.8027 27.0329 14.1898 27.5847 13.4881C28.6523 11.924 29.1349 10.0339 28.9478 8.14952C28.7607 6.26511 27.9158 4.50682 26.5615 3.18327C22.4183 -0.881617 14.926 0.443526 12.4937 5.57077C11.6606 7.34881 11.8228 10.0438 12.3875 11.9113ZM25.1469 20.9245C24.4033 21.5228 23.3074 21.6011 22.3512 21.7968C22.094 21.8527 21.4846 22.0037 21.3224 21.7968C21.0061 21.3401 20.7785 20.828 20.6515 20.2871C22.0998 20.083 23.5164 19.696 24.8673 19.1353C25.0501 19.7142 25.1443 20.3174 25.1469 20.9245ZM24.8058 18.9061C23.3771 19.1723 21.9741 19.5614 20.6123 20.0691C20.4679 19.4201 20.2811 18.7813 20.0532 18.1568C21.4978 18.0055 22.9146 17.6556 24.2635 17.1168C24.4891 17.7079 24.6758 18.313 24.8226 18.9284L24.8058 18.9061ZM12.846 5.7441C15.1888 0.902014 22.3512 -0.322485 26.2652 3.50757C27.5373 4.75532 28.3331 6.40859 28.5148 8.18119C28.6966 9.95379 28.2528 11.7342 27.2604 13.2141C26.2931 14.5784 24.3362 15.5177 24.0342 16.0098C23.928 16.1831 24.1237 16.6248 24.2467 16.9379C23.6093 17.0609 22.9104 17.2119 22.2841 17.3517C22.1164 16.5857 21.3336 13.4937 21.0429 12.7668C20.931 12.476 20.8304 12.4984 20.5341 12.5823C18.9014 12.5823 17.1066 12.1685 16.5307 10.6309C16.4611 10.4507 16.4123 10.2631 16.3853 10.0718C16.307 9.26663 16.9444 8.32729 17.6489 8.39438C17.5483 9.00943 17.6489 10.1836 18.1745 10.5359C18.7001 10.8881 19.2928 10.329 19.2928 9.82576C19.263 9.46288 19.145 9.11277 18.9492 8.80583C18.7533 8.49889 18.4855 8.24441 18.1689 8.06449C18.2568 7.86488 18.3871 7.68678 18.5507 7.54252C18.7143 7.39827 18.9073 7.29132 19.1163 7.22909C19.3253 7.16685 19.5454 7.15083 19.7613 7.18212C19.9771 7.21341 20.1836 7.29128 20.3663 7.41031C19.9246 8.27137 20.3663 10.2451 21.1491 9.78103C21.9319 9.31695 21.6747 8.17632 21.1882 7.5445C20.9534 7.23698 20.9031 7.32085 21.0205 7.23139C21.9319 6.56602 22.9663 7.33762 23.4024 8.34965C24.0286 9.74189 22.6867 11.4584 21.8368 11.9784C21.8161 11.991 21.8012 12.0114 21.7954 12.035C21.7896 12.0585 21.7935 12.0835 21.8061 12.1042C21.8187 12.125 21.839 12.1399 21.8626 12.1457C21.8862 12.1514 21.9111 12.1476 21.9319 12.135C22.9719 11.5255 24.2858 9.73071 23.6876 8.22105C23.0893 6.7114 21.5852 6.1299 20.6347 7.0301C20.3954 6.86588 20.1222 6.75745 19.8354 6.71281C19.5486 6.66816 19.2555 6.68844 18.9775 6.77214C18.6996 6.85584 18.444 7.00083 18.2295 7.19644C18.0151 7.39204 17.8472 7.63327 17.7384 7.90235C16.6984 7.76815 15.8206 8.98147 15.938 10.083C16.0012 10.5698 16.1852 11.0331 16.4733 11.4306C16.7614 11.8281 17.1444 12.1471 17.5874 12.3586C18.113 12.6102 19.9805 13.0687 20.7186 12.8563C20.9758 13.4154 21.9095 16.6975 22.0773 17.3852C19.5947 17.9444 20.0979 18.2071 19.9749 17.8437C19.8296 17.3908 19.7401 16.7254 19.6171 16.6807C16.5307 15.9818 13.7462 15.4674 12.7062 11.8051C12.1974 10.0326 12.0632 7.40472 12.846 5.7441ZM18.0347 8.50621C18.2466 8.65654 18.4237 8.85068 18.5539 9.07546C18.6841 9.30025 18.7645 9.55041 18.7896 9.80899C18.7896 9.95995 18.4485 10.3681 18.2304 9.92081C18.0635 9.46916 18.0041 8.98481 18.0571 8.50621H18.0347ZM20.6738 7.65074C21.1211 8.08686 21.4007 9.10448 20.9143 9.40082C20.7457 9.14575 20.6365 8.85606 20.5949 8.55314C20.5533 8.25022 20.5803 7.94183 20.6738 7.65074ZM3.89988 28.9928C6.17555 28.2827 8.93207 28.8978 9.99442 31.4138C11.834 35.6744 6.96952 37.8439 7.01984 38.0675C7.13167 38.6267 7.33295 39.6051 7.41682 40.1699C7.42349 40.2173 7.44875 40.2602 7.48702 40.289C7.52529 40.3178 7.57345 40.3303 7.6209 40.3236C7.66836 40.3169 7.71122 40.2917 7.74005 40.2534C7.76889 40.2151 7.78134 40.167 7.77467 40.1195C7.70757 39.5604 7.63488 38.7552 7.5566 38.1738C8.34715 37.8566 9.07866 37.4087 9.72045 36.8486C13.6679 32.191 9.26196 26.3146 3.6315 28.1541C2.73994 28.4141 1.95141 28.9451 1.37531 29.6735C0.799206 30.4019 0.464101 31.2915 0.416488 32.219C0.237566 34.422 1.99324 36.323 4.82804 36.077C4.87077 36.0695 4.90948 36.0471 4.93737 36.0139C4.96527 35.9807 4.98056 35.9387 4.98056 35.8953C4.98056 35.8519 4.96527 35.8099 4.93737 35.7767C4.90948 35.7434 4.87077 35.7211 4.82804 35.7136C2.31195 35.8422 0.964438 34.0362 1.20486 32.3029C1.26056 31.5414 1.54898 30.8154 2.03104 30.2234C2.5131 29.6313 3.16551 29.2017 3.89988 28.9928ZM45.6615 14.4051C45.7089 14.4177 45.7594 14.4109 45.8019 14.3863C45.8444 14.3616 45.8753 14.3211 45.8879 14.2737C45.9005 14.2262 45.8937 14.1757 45.8691 14.1332C45.8445 14.0908 45.804 14.0598 45.7565 14.0472C43.3355 13.3651 42.6365 11.2236 43.4193 9.65243C43.7242 8.95072 44.2375 8.35974 44.8896 7.95966C45.5418 7.55958 46.3012 7.36974 47.0649 7.4159C51.2695 7.52214 53.1147 11.3913 51.5379 14.1534C50.4924 16.0433 49.0945 16.5521 47.3053 16.787C47.2488 16.7949 47.1964 16.821 47.1561 16.8614C47.1157 16.9017 47.0896 16.9541 47.0816 17.0106C47.0201 17.525 46.886 18.537 46.7853 19.1241C46.7757 19.1708 46.785 19.2195 46.8112 19.2593C46.8374 19.2992 46.8784 19.327 46.9251 19.3366C46.9718 19.3462 47.0204 19.3369 47.0603 19.3107C47.1001 19.2845 47.1279 19.2435 47.1376 19.1968C47.2662 18.5929 47.4395 17.8829 47.5569 17.2846C48.4063 17.2389 49.2419 17.0499 50.0283 16.7254C51.9237 15.6072 53.0755 13.8403 52.9246 11.6038C52.5723 6.35355 44.9122 4.47487 42.7092 9.36727C41.8538 11.3578 42.8937 13.7788 45.6615 14.4051ZM76.7268 40.6395C76.6627 39.6031 76.2931 38.6089 75.6645 37.7824C75.0598 37.102 74.3222 36.5525 73.4971 36.1679C72.6721 35.7833 71.7771 35.5716 70.8671 35.5458C69.9409 35.5029 69.0242 35.7489 68.2439 36.2497C67.4636 36.7506 66.8582 37.4815 66.5115 38.3415C65.6336 40.3711 66.6904 42.7363 69.4469 43.4072C69.4715 43.4183 69.4982 43.4238 69.5251 43.4235C69.5521 43.4231 69.5786 43.4169 69.6029 43.4052C69.6271 43.3935 69.6485 43.3766 69.6656 43.3557C69.6826 43.3349 69.6949 43.3105 69.7015 43.2844C69.7081 43.2583 69.709 43.231 69.7039 43.2046C69.6989 43.1781 69.6882 43.1531 69.6724 43.1312C69.6567 43.1093 69.6364 43.0912 69.6129 43.078C69.5894 43.0648 69.5633 43.057 69.5364 43.055C67.1321 42.3281 66.4164 40.2593 67.2048 38.6602C67.5097 37.9585 68.023 37.3675 68.6751 36.9674C69.3273 36.5673 70.0867 36.3775 70.8504 36.4237C71.6258 36.4452 72.3888 36.6238 73.0932 36.9486C73.7977 37.2735 74.4289 37.7378 74.9488 38.3135C75.4726 38.9971 75.7837 39.8196 75.8434 40.6787C76.2404 45.6102 70.9286 45.627 70.8783 46.0184C70.8112 46.5775 70.6882 47.5616 70.582 48.1319C70.5723 48.1786 70.5816 48.2272 70.6079 48.2671C70.6341 48.3069 70.675 48.3347 70.7217 48.3444C70.7685 48.354 70.8171 48.3447 70.8569 48.3185C70.8968 48.2923 70.9246 48.2513 70.9342 48.2046C71.0684 47.6063 71.2362 46.8906 71.3536 46.2924C72.2045 46.2446 73.0416 46.0556 73.8305 45.7332C75.698 44.6373 76.8778 42.8984 76.7268 40.6395ZM9.90496 44.4081C10.1454 43.4128 9.4241 42.3672 8.70842 42.4511C8.24425 42.4009 7.77683 42.3878 7.31059 42.412C6.09727 42.7027 5.52696 44.2907 6.66758 45.0679C7.97595 45.9401 9.67012 45.3362 9.90496 44.4081ZM9.0383 44.2962C8.83974 44.4619 8.59653 44.5651 8.33939 44.5926C6.81855 44.8051 6.49425 43.4743 7.51747 43.0382L8.7196 42.8145C9.23959 42.8593 9.35701 43.972 9.0383 44.2683V44.2962ZM46.3212 21.26C45.0185 20.7847 43.6094 22.2553 44.532 23.4965C45.4546 24.7378 47.2829 24.7378 47.8085 23.9103C48.3341 23.0828 48.0154 21.8303 47.3109 21.6738C47.2494 21.6458 46.7629 21.4222 46.3212 21.26ZM47.0257 23.4965C46.7756 23.5817 46.5077 23.6006 46.2481 23.5517C45.9885 23.5027 45.7459 23.3874 45.544 23.217C45.3788 23.0983 45.243 22.9434 45.147 22.7641C44.9849 22.3112 45.5664 21.8471 45.9913 21.8191L47.1991 21.9925C47.6687 22.2441 47.4339 23.34 47.0257 23.5133V23.4965ZM71.0908 50.7151C70.979 50.6648 70.403 50.4243 70.1067 50.3125C68.7983 49.8372 67.3949 51.3078 68.3175 52.549C69.2401 53.7903 71.0628 53.7903 71.594 52.9628C72.1252 52.1353 71.8009 50.8716 71.0908 50.7151ZM70.8056 52.5658C70.5554 52.6504 70.2877 52.6691 70.0281 52.6201C69.7686 52.5712 69.5261 52.4562 69.3239 52.2862C69.1601 52.1638 69.0247 52.0074 68.9269 51.8278C68.7704 51.3804 69.3463 50.9164 69.7712 50.8884L70.979 51.0617C71.4486 51.2966 71.2138 52.3869 70.8056 52.5658Z" fill="black"/>
<path fill-rule="evenodd" clip-rule="evenodd" d="M66.5227 81.5568C65.4044 76.055 61.0544 67.5785 55.8321 65.4147L54.7809 63.2173C54.7734 63.2014 54.7625 63.1872 54.7491 63.1758C54.7356 63.1644 54.7199 63.1561 54.7029 63.1513C54.6859 63.1465 54.6682 63.1455 54.6507 63.1482C54.6333 63.1509 54.6167 63.1573 54.602 63.167L53.4837 63.8883C53.1285 61.5149 52.044 59.3108 50.3805 57.5812C51.5435 55.7864 53.4054 55.2385 55.3288 55.1546C56.9224 55.0875 58.0965 54.9925 59.0191 53.6282C60.8475 50.9332 60.417 48.3052 58.2699 45.8003C54.999 41.9871 53.713 43.1277 52.1194 41.0198C49.0889 37.0611 48.4012 31.207 43.9393 28.1597C38.2362 24.2961 35.1609 27.4105 33.9644 28.3722C32.2143 27.3098 28.3116 27.6789 26.6342 29.1158C25.2084 30.3347 23.3185 31.9115 22.5861 33.6728C21.0261 37.391 21.1938 41.7914 18.9126 45.1629C18.3534 46.0016 17.3973 46.5663 16.7208 47.3603C15.7922 48.5246 15.0022 49.7931 14.3668 51.14C13.5393 52.7056 12.9075 54.4445 13.6623 56.066C14.6744 58.2354 16.9388 60.3042 19.3543 60.1477C20.7521 60.0526 22.6028 59.2139 23.9168 59.7675C24.6996 60.0918 25.0015 60.8466 25.5942 61.4784C26.9361 62.9713 30.0673 63.4242 31.8006 62.3898C29.8939 64.8164 26.9864 64.7325 21.9151 67.5282C14.132 71.8112 11.2916 76.6756 10.4585 81.6575C10.1398 83.2074 9.90463 84.7734 9.75399 86.3486C9.27314 94.4728 11.7389 104.772 19.7345 106.477C21.9263 106.947 24.4368 107.249 26.6062 106.707C30.7159 105.683 35.6194 102.916 39.2202 100.668C40.8976 99.6224 47.104 95.4345 49.9891 94.8865C50.1628 96.3788 50.539 97.8404 51.1074 99.231C53.4166 103.978 57.1125 106.785 62.29 105.566C65.6448 104.778 66.6009 101.205 66.6904 97.7828C68.3734 94.1708 67.0371 84.1847 66.5227 81.5568ZM47.1767 55.3783C48.172 55.5628 48.8541 56.4965 49.5922 57.257C51.5435 59.2083 52.8854 61.2995 53.288 63.9665C51.6721 64.9953 50.621 65.6439 50.5986 65.6775C50.5762 65.711 49.799 63.7317 49.3294 63.4913C48.6267 63.1424 47.9893 62.6752 47.4451 62.1102C47.0257 61.6461 46.5113 60.8298 46.5784 60.2148C46.8756 60.0566 47.2 59.9561 47.5345 59.9184V59.5718C45.8068 59.6221 45.2141 61.1988 45.0576 61.5511C44.9458 61.8027 44.7892 62.0543 44.4314 62.0152C44.0735 61.976 43.9449 61.5623 44.0791 61.1932C44.2133 60.8242 44.5376 59.2027 46.8244 58.8505C46.8531 58.8464 46.8806 58.8368 46.9056 58.8221C46.9305 58.8074 46.9522 58.788 46.9696 58.7649C46.987 58.7418 46.9997 58.7155 47.0069 58.6875C47.0142 58.6595 47.0158 58.6303 47.0118 58.6017C47.0077 58.573 46.9981 58.5455 46.9834 58.5206C46.9687 58.4956 46.9492 58.4739 46.9261 58.4565C46.903 58.4391 46.8767 58.4264 46.8487 58.4192C46.8207 58.412 46.7916 58.4103 46.7629 58.4144C46.2843 58.4752 45.8204 58.621 45.3931 58.8449C45.0089 59.0325 44.6679 59.2978 44.3917 59.6241C44.1154 59.9504 43.91 60.3305 43.7884 60.7403C43.52 61.5064 42.5806 61.1653 42.8043 60.5055C43.0293 59.8637 43.3642 59.2658 43.7939 58.7386C44.2712 58.2837 44.8444 57.9417 45.4713 57.7378C45.9634 57.5365 46.3827 57.6316 46.4946 57.4694C46.6064 57.3073 46.3436 56.7649 46.2094 56.6028C45.4881 55.7417 43.4137 56.4853 42.6198 55.5236C42.111 54.8918 43.1789 54.8695 43.6094 54.8135C44.8172 54.6794 45.9634 55.149 47.1767 55.3783ZM49.2287 69.2336C47.6304 69.7545 45.9999 70.171 44.3475 70.4804C44.9066 67.299 45.2868 64.5704 45.2309 63.5807C46.5337 63.8323 48.0266 64.0113 49.6592 64.2796C50.101 65.0121 50.3414 65.6272 50.4476 65.8005L49.3629 66.4882C49.307 66.5609 49.3182 66.259 49.2287 69.2336ZM43.1565 85.3869C43.4041 86.4605 43.5797 87.5495 43.6821 88.6466C41.3897 88.5012 39.6396 88.5292 38.7785 88.4957C38.8121 86.9245 38.8289 86.438 38.8568 86.1082C40.2679 85.7505 41.706 85.5093 43.1565 85.3869ZM34.3614 71.6155C37.5333 71.6381 40.7011 71.3798 43.8275 70.8439C42.8322 76.2115 41.317 82.6639 40.6013 83.9555C38.9575 79.4713 39.1252 79.4545 34.3614 71.6155ZM41.071 83.8828C41.9768 81.8532 43.3522 75.7978 44.2692 70.7544C45.9382 70.4416 47.584 70.0157 49.1952 69.4796C49.0218 75.5182 48.9715 83.0553 49.3349 89.1107C48.2726 89.0156 46.7294 88.8815 45.2309 88.764C45.1359 87.8582 44.7612 84.7047 44.4425 83.8772C44.3587 83.6536 44.258 83.5641 43.8834 83.5529C42.9484 83.5939 42.0177 83.7042 41.0989 83.8828H41.071ZM43.0671 62.5519C42.5008 62.2209 42.0484 61.7256 41.7699 61.1317C42.0287 61.2409 42.2987 61.3215 42.575 61.3722C42.6799 61.4902 42.8151 61.5771 42.966 61.6234C43.1168 61.6698 43.2775 61.6738 43.4305 61.635C43.6821 61.5567 43.52 61.5231 43.6542 61.8754C43.7057 62.0173 43.7925 62.1437 43.9064 62.2428C44.0204 62.3419 44.1576 62.4103 44.3053 62.4416C44.453 62.4729 44.6062 62.4661 44.7506 62.4218C44.8949 62.3776 45.0256 62.2973 45.1303 62.1885C45.3483 61.9928 45.3651 61.758 45.6279 61.2547C45.8851 61.2044 46.1367 61.1373 46.3827 61.0646C47.0481 62.8091 49.1337 63.6534 49.279 63.782C46.8244 63.4186 44.6494 63.1893 43.095 62.5519H43.0671ZM32.3485 61.881C33.6904 60.3266 33.4165 59.2139 32.0354 58.1124C29.2397 55.9206 29.5864 56.5077 28.4122 54.0587C27.0312 50.0833 28.2221 43.821 29.2453 39.7449C29.5249 38.6267 31.4315 37.4301 32.8182 37.609C34.7416 37.8551 33.9365 38.8671 35.5803 39.443C35.8657 39.5264 36.1609 39.5716 36.4581 39.5772C36.4758 39.5827 36.4943 39.5847 36.5127 39.583C36.5311 39.5814 36.549 39.5761 36.5653 39.5675C36.5817 39.559 36.5962 39.5473 36.608 39.5331C36.6198 39.5189 36.6288 39.5026 36.6343 39.4849C36.6398 39.4673 36.6418 39.4488 36.6401 39.4304C36.6384 39.412 36.6332 39.3941 36.6246 39.3778C36.616 39.3614 36.6043 39.3469 36.5902 39.3351C36.576 39.3232 36.5596 39.3143 36.542 39.3088C35.67 38.7858 34.8661 38.1566 34.1489 37.4357C34.49 36.0435 35.3566 35.2831 36.9837 35.2719C38.102 35.2719 38.9854 36.1218 39.7794 36.8486C40.7411 37.7265 41.7755 40.0972 41.6972 41.4C41.5203 42.9095 41.8742 44.4336 42.698 45.7109C43.2572 46.6838 44.3083 47.5281 44.9346 48.35C45.2812 48.8085 45.08 50.8549 44.8787 51.7551C44.6159 52.5435 44.0567 54.0475 43.9281 54.3886C41.591 54.4725 41.6916 55.7249 42.8099 56.2617C41.7643 57.5141 39.2091 58.9064 41.0374 60.6621C41.4288 61.484 42.055 62.6078 42.8937 62.9489C43.4889 63.1901 44.1046 63.3773 44.7333 63.508C44.8563 64.3747 44.4537 67.243 43.8387 70.5811C40.6297 71.1149 37.3793 71.36 34.1266 71.3135C32.1081 68.0091 30.1008 64.8779 29.592 64.3747C30.7217 63.8004 31.6816 62.9407 32.3765 61.881H32.3485ZM28.5352 64.8276C29.6535 64.4082 29.0944 64.4809 29.3628 64.6878C29.6311 64.8947 31.4763 67.819 33.6177 71.2912C31.0793 71.252 28.2221 71.0619 27.143 70.9389C27.4673 70.6817 26.6286 66.2646 26.3043 65.7054C27.115 65.3811 27.8643 65.096 28.5632 64.8276H28.5352ZM25.8905 65.8788C26.3503 67.5252 26.6628 69.2092 26.8243 70.9109C24.4117 70.5652 22.045 69.9519 19.768 69.0826C21.7192 67.8345 23.7775 66.7624 25.9185 65.8788H25.8905ZM26.3994 106.304C24.3026 106.83 21.848 106.522 19.7345 106.069C16.43 105.359 14.1432 103.151 12.6559 100.321C10.2908 95.8482 9.58625 89.2002 10.3075 84.5426C10.4529 83.6088 10.6374 82.6863 10.794 81.7469C11.683 76.4184 14.9204 72.4038 19.4382 69.3677C23.8721 70.9948 26.8522 71.5651 33.819 71.6043C38.6443 79.4321 38.7506 80.2149 40.1316 84.045C39.7067 84.1232 37.7385 84.5202 37.4031 84.7942C37.2689 84.9004 37.2689 85.1129 37.4031 88.4733C32.315 88.5739 27.3387 89.3679 22.6588 92.3872C22.0996 88.3559 22.7426 87.137 24.0454 84.8277C26.0918 81.199 25.7228 80.528 24.4312 78.4648C24.2183 78.1863 24.0659 77.8663 23.9839 77.5255C23.9839 77.3913 23.4248 77.2068 24.2131 78.5934C25.3314 80.6287 25.6333 81.1095 23.654 84.6041C22.2059 87.1649 21.6132 88.4789 22.4854 92.5046C22.094 92.7674 21.6467 93.0638 21.2162 93.4104C20.5584 93.8736 19.9412 94.3917 19.3711 94.9592C19.3599 94.9807 19.3578 95.0058 19.3652 95.0288C19.3725 95.0519 19.3887 95.0711 19.4102 95.0822C19.4317 95.0934 19.4567 95.0955 19.4798 95.0881C19.5029 95.0808 19.5221 95.0646 19.5332 95.0431C19.7065 94.7356 22.5973 92.8066 23.3744 92.4096C27.7133 90.2234 32.5107 88.3335 40.3665 88.8535C40.2675 92.1776 40.6116 95.5001 41.3897 98.7334C37.3527 101.283 31.6161 105.007 26.4273 106.304H26.3994ZM41.7363 98.5097C41.018 95.3565 40.7005 92.1253 40.7914 88.8926C49.279 89.4518 46.6176 89.2728 49.3573 89.4518C49.458 91.0844 49.6089 92.8569 49.8326 94.484C47.6408 94.8921 43.6989 97.2964 41.7643 98.5097H41.7363ZM62.0552 105.163C57.1181 106.332 53.6123 103.637 51.387 99.0744C48.9268 94.0423 49.3349 72.1858 49.4747 66.6168L54.5852 63.4521C61.4849 78.353 62.3124 79.762 63.8612 84.6991C65.8629 90.9894 68.502 103.676 62.0832 105.163H62.0552ZM66.5618 96.6087C66.4323 93.6147 65.971 90.6443 65.1863 87.752C63.4139 80.8579 61.4961 77.4025 56.1899 66.2478L56.3465 66.1639C61.032 68.6688 65.0018 76.4464 66.0418 81.6407C66.6121 84.3525 67.7024 93.2203 66.5898 96.6087H66.5618Z" fill="black"/>
</svg>
