<svg width="147" height="111" viewBox="0 0 147 111" fill="none" xmlns="http://www.w3.org/2000/svg">
<path d="M114.037 43.8959C113.715 43.8959 113.715 44.4938 114.037 44.4938C114.804 44.4938 125.482 44.3175 126.379 44.1412C126.46 44.129 126.535 44.0878 126.589 44.0252C126.643 43.9626 126.672 43.8827 126.672 43.8001C126.672 43.7175 126.643 43.6377 126.589 43.5751C126.535 43.5125 126.46 43.4713 126.379 43.459C123.565 43.0911 117.134 43.8346 114.037 43.8959ZM118.315 59.5489C117.962 59.5489 118.023 60.1391 118.361 60.1545C120.859 60.2388 124.754 60.1085 127.306 59.9935C127.774 59.9935 127.827 59.2269 127.306 59.2269C124.447 59.2423 121.181 59.2806 118.315 59.5489ZM118.644 33.1106C118.57 33.1138 118.499 33.1439 118.445 33.1952C118.392 33.2466 118.358 33.3158 118.352 33.3898C118.345 33.4639 118.366 33.5378 118.41 33.5979C118.454 33.6579 118.518 33.6999 118.59 33.7162C119.963 33.8848 124.416 34.0611 125.758 33.4939C125.826 33.4598 125.882 33.4044 125.916 33.3358C125.951 33.2673 125.962 33.1895 125.948 33.1141C125.934 33.0388 125.896 32.97 125.84 32.9182C125.783 32.8664 125.711 32.8343 125.635 32.827C123.857 32.7196 121.005 33.2869 118.644 33.1106ZM109.89 47.9203C116.36 47.8283 123.688 47.3761 130.219 46.7782C130.625 46.7782 130.587 46.0116 130.165 46.0116C123.742 46.1726 116.237 46.5942 109.852 47.2534C109.763 47.2585 109.681 47.2985 109.622 47.3646C109.563 47.4308 109.532 47.5176 109.538 47.606C109.543 47.6945 109.583 47.7773 109.649 47.8362C109.715 47.8951 109.802 47.9254 109.89 47.9203ZM119.165 13.7782C120.967 13.6402 122.768 13.5329 124.531 13.3183C125.037 13.2646 124.907 12.5517 124.409 12.5517C122.615 12.6897 120.821 12.9197 119.043 13.1266C118.629 13.1726 118.744 13.8089 119.165 13.7782ZM108.648 29.7684C108.265 29.7684 108.25 30.42 108.648 30.4506C112.982 30.6525 117.324 30.3489 121.588 29.5461C122.071 29.4618 121.994 28.6952 121.503 28.7796C117.258 29.5036 112.955 29.8346 108.648 29.7684ZM122.914 17.45C123.581 17.6109 123.68 16.5224 123.067 16.6298C120.075 17.1148 117.043 17.3022 114.014 17.1893C113.608 17.1893 113.516 17.7796 113.93 17.8256C116.927 18.1265 119.952 18 122.914 17.45ZM106.31 47.56C105.712 47.3301 102.953 47.7134 102.179 47.7977C101.803 47.7977 101.788 48.4032 102.179 48.3956L105.314 48.2959C106.763 48.2423 106.755 47.7363 106.31 47.56ZM109.476 80.7287C108.832 80.5753 104.256 80.9203 103.505 80.9663C103.106 80.9663 103.183 81.5795 103.581 81.5719C104.394 81.5719 108.848 81.5719 109.553 81.3496C109.867 81.2422 109.76 80.79 109.476 80.7287ZM103.497 77.4861C105.651 77.5858 110.986 77.6778 113.14 77.1642C113.191 77.1638 113.24 77.1529 113.286 77.1321C113.332 77.1114 113.373 77.0812 113.406 77.0436C113.44 77.0061 113.465 76.9619 113.481 76.914C113.496 76.8661 113.501 76.8155 113.496 76.7654C113.49 76.7154 113.475 76.667 113.449 76.6235C113.424 76.5799 113.39 76.5421 113.349 76.5125C113.309 76.4829 113.262 76.4622 113.213 76.4516C113.164 76.4411 113.113 76.441 113.064 76.4513C109.913 76.4513 106.993 76.9802 103.589 76.8422C103.183 76.8269 103.075 77.4632 103.497 77.4861ZM110.933 63.8569C111.393 63.7726 111.354 63.0903 110.871 63.0903C107.468 63.4353 106.755 63.5196 103.267 63.6576C102.93 63.6576 102.892 64.2402 103.267 64.2632C105.829 64.4333 108.403 64.2969 110.933 63.8569ZM115.655 59.0353C111.485 59.1886 107.154 59.8938 102.8 60.0471C102.722 60.0591 102.651 60.0985 102.6 60.1583C102.548 60.2181 102.52 60.2942 102.52 60.3729C102.52 60.4517 102.548 60.5278 102.6 60.5875C102.651 60.6473 102.722 60.6867 102.8 60.6987C106.41 60.6987 112.22 60.5301 115.739 59.7482C115.812 59.7157 115.873 59.6605 115.913 59.5908C115.953 59.521 115.969 59.4403 115.96 59.3606C115.95 59.2809 115.916 59.2063 115.861 59.1477C115.806 59.0892 115.734 59.0498 115.655 59.0353ZM129.859 78.8506C129.797 78.8506 125.589 79.1956 124.869 79.1726C124.8 79.1848 124.738 79.2188 124.69 79.2694C124.643 79.32 124.613 79.3845 124.605 79.4535C124.598 79.5224 124.612 79.5919 124.647 79.6518C124.682 79.7117 124.736 79.7587 124.8 79.7858C125.658 79.9468 129.276 80.0081 130.02 79.3795C130.057 79.3383 130.083 79.288 130.095 79.2336C130.108 79.1793 130.106 79.1227 130.089 79.0694C130.073 79.0161 130.043 78.9679 130.003 78.9295C129.963 78.8912 129.913 78.864 129.859 78.8506ZM131.216 62.1322C125.903 62.4771 119.97 62.6764 114.681 63.1287C114.267 63.1287 114.344 63.7496 114.742 63.7726C117.602 63.8569 127.774 63.3356 131.285 62.891C131.335 62.8872 131.383 62.8734 131.428 62.8504C131.473 62.8273 131.512 62.7956 131.545 62.757C131.577 62.7184 131.601 62.6737 131.615 62.6257C131.63 62.5776 131.635 62.5271 131.629 62.4771C131.62 62.3767 131.571 62.2842 131.493 62.2196C131.416 62.155 131.316 62.1236 131.216 62.1322ZM111.262 44.7008C111.364 44.7008 111.461 44.6604 111.533 44.5886C111.605 44.5167 111.646 44.4192 111.646 44.3175C111.646 44.2159 111.605 44.1184 111.533 44.0465C111.461 43.9746 111.364 43.9343 111.262 43.9343C107.958 44.0186 104.624 44.0416 101.297 44.2945C101.226 44.3104 101.162 44.3502 101.116 44.4074C101.07 44.4645 101.045 44.5356 101.045 44.6088C101.045 44.6821 101.07 44.7531 101.116 44.8103C101.162 44.8674 101.226 44.9072 101.297 44.9231C104.639 44.9844 107.958 44.8081 111.262 44.7008ZM124.332 75.6464C123.167 75.6464 118.966 75.9454 117.97 76.1217C117.648 76.1754 117.602 76.7043 117.97 76.7196C119.05 76.7733 123.228 76.505 124.439 76.3977C124.907 76.413 124.807 75.6464 124.332 75.6464ZM122.094 79.9468L112.458 80.56C112.021 80.56 112.128 81.2269 112.558 81.2039C114.428 81.1196 120.446 80.882 122.132 80.652C122.508 80.606 122.515 79.9468 122.094 79.9468ZM115.195 13.3183C112.366 12.9963 103.489 13.5329 100.477 13.8395C100.063 13.8778 100.032 14.5217 100.477 14.4834C105.429 14.1615 110.25 14.0541 115.202 14.0695C115.289 14.051 115.366 14.0032 115.422 13.9342C115.477 13.8652 115.506 13.7792 115.506 13.6907C115.505 13.6023 115.473 13.5169 115.417 13.449C115.36 13.3811 115.281 13.3349 115.195 13.3183ZM116.015 34.0074C116.498 33.9384 116.321 33.2409 115.839 33.2409C110.905 33.803 105.941 34.059 100.975 34.0074C100.903 34.0189 100.838 34.0557 100.79 34.1112C100.743 34.1667 100.717 34.2373 100.717 34.3102C100.717 34.3832 100.743 34.4537 100.79 34.5092C100.838 34.5647 100.903 34.6015 100.975 34.613C105.996 34.8548 111.029 34.6522 116.015 34.0074ZM110.81 17.9559C110.86 17.9511 110.909 17.9364 110.954 17.9125C110.999 17.8887 111.038 17.8562 111.07 17.817C111.102 17.7778 111.126 17.7327 111.141 17.6841C111.155 17.6356 111.16 17.5847 111.155 17.5343C111.15 17.4839 111.135 17.4349 111.112 17.3902C111.088 17.3455 111.055 17.306 111.016 17.2739C110.977 17.2418 110.932 17.2178 110.883 17.2033C110.835 17.1888 110.784 17.184 110.733 17.1893C107.353 17.6109 104.149 17.6263 100.814 17.9176C100.462 17.9559 100.423 18.5308 100.814 18.5461C104.156 18.6002 107.498 18.4028 110.81 17.9559ZM101.312 30.0904C100.929 30.0904 100.921 30.6959 101.358 30.7113C102.734 30.8408 104.117 30.8767 105.498 30.8186C105.56 30.7908 105.613 30.7456 105.65 30.6885C105.687 30.6314 105.707 30.5647 105.707 30.4966C105.707 30.4285 105.687 30.3619 105.65 30.3048C105.613 30.2476 105.56 30.2025 105.498 30.1747C105.36 30.098 102.018 30.0904 101.312 30.0904ZM91.7459 34.5057C92.1905 34.5057 93.8386 31.7768 94.7661 30.8416C95.1034 30.5043 94.5515 29.9371 94.2065 30.259C93.2286 31.1406 92.3819 32.1577 91.6922 33.2792L89.7529 31.4932C89.3543 31.1252 88.8407 31.7538 89.2086 32.1294C89.5766 32.505 91.1786 34.5057 91.7459 34.5057ZM86.5027 21.9879C89.6456 22.1719 92.911 22.1106 96.3605 22.1336C96.6058 22.1336 96.7515 21.4514 96.3605 13.3106C96.3605 12.7203 96.3069 12.2834 96.2992 12.1224C96.3012 12.0987 96.2981 12.0748 96.2902 12.0524C96.2822 12.0299 96.2696 12.0094 96.2532 11.9921C96.0309 11.7545 94.5821 11.7698 91.3243 11.8541C85.8435 11.9845 85.2379 11.9461 85.2379 12.2604C85.2149 12.3217 85.5598 21.896 86.5027 21.9879ZM86.7173 21.4207C86.3341 19.374 86.0581 15.0507 85.8205 12.6284C88.0511 12.7587 93.1334 12.5057 95.6936 12.4444C95.6936 12.4444 95.8316 19.259 95.8929 21.459C92.8881 21.39 89.7529 21.275 86.6867 21.3824L86.7173 21.4207Z" fill="black"/>
<path d="M97.4182 36.5063C98.0621 36.2533 97.3109 29.1091 97.2036 27.231C97.1983 27.1924 97.1793 27.157 97.1499 27.1314C96.69 26.7327 86.9625 27.2617 86.4719 27.3C85.9813 27.3383 86.4719 30.0059 86.5562 31.8226C86.7325 36.3453 86.9395 36.7362 87.1694 36.7669C88.8405 37.0045 95.8851 37.1042 97.4182 36.5063ZM86.9395 27.9286C90.2586 27.7139 93.6238 27.6986 96.6133 27.6833C96.69 29.477 96.8126 34.5286 96.966 35.893C93.8418 36.2161 90.6979 36.3058 87.5604 36.1613C87.6907 35.0192 87.0545 29.224 86.9395 27.9286ZM93.1792 47.284L94.9576 45.6742C95.0094 45.5866 95.0322 45.4848 95.0228 45.3834C95.0133 45.282 94.9721 45.1863 94.9049 45.1097C94.8377 45.0332 94.7481 44.9799 94.6488 44.9574C94.5495 44.9348 94.4456 44.9443 94.352 44.9843C93.6238 45.4328 92.9631 45.9825 92.3896 46.6171L90.7952 45.1453C90.7088 45.065 90.5941 45.0223 90.4762 45.0266C90.3583 45.0309 90.247 45.0819 90.1667 45.1683C90.0863 45.2547 90.0437 45.3694 90.048 45.4873C90.0523 45.6052 90.1032 45.7165 90.1896 45.7968L91.7227 47.3299C90.343 48.7864 89.7374 49.6986 89.8754 50.1125C90.0133 50.5265 90.5116 50.3425 90.6419 50.1585C91.1785 49.4993 91.7841 48.7481 92.4356 48.0505C93.0816 48.7557 93.7982 49.3928 94.5743 49.9516C94.6544 49.9723 94.7386 49.9711 94.818 49.948C94.8975 49.925 94.9692 49.8809 95.0257 49.8205C95.0822 49.7601 95.1214 49.6855 95.1391 49.6047C95.1567 49.5239 95.1523 49.4398 95.1262 49.3613C94.5492 48.6048 93.8968 47.9087 93.1792 47.284ZM93.5855 14.422C92.361 15.4928 91.3606 16.7954 90.6419 18.2547C90.0645 17.5635 89.3997 16.9502 88.6642 16.4303C88.2119 16.116 87.6294 16.7139 88.074 17.0512C88.9484 17.824 89.7656 18.6592 90.5193 19.5502C90.7186 19.7571 90.9102 19.6498 91.0788 19.4275C91.9136 17.8012 92.9433 16.2824 94.145 14.9049C94.513 14.4986 93.9841 14.0463 93.5855 14.422ZM93.3402 64.47C93.7388 64.194 95.2565 61.2658 96.1381 60.2693C96.483 59.886 95.8851 59.3571 95.4942 59.7634C94.4448 60.8445 93.545 62.0614 92.8189 63.3815L91.0328 61.8484C90.6419 61.5188 90.1207 62.109 90.5269 62.5C90.9332 62.8909 92.6809 65.0373 93.3402 64.47ZM99.1889 74.2972C98.8977 73.7223 88.4113 74.2972 88.3116 74.2972C88.2887 74.3 88.2669 74.3085 88.2482 74.3219C88.2294 74.3352 88.2144 74.3531 88.2043 74.3738C87.8517 74.9411 88.2043 84.1627 88.4572 85.0212C88.7562 86.0637 98.9206 85.1975 99.4266 85.2435C99.4418 85.2469 99.4576 85.2469 99.4729 85.2435C99.4881 85.2401 99.5025 85.2334 99.5149 85.224C99.5273 85.2145 99.5375 85.2024 99.5447 85.1886C99.552 85.1747 99.5561 85.1595 99.5569 85.1439C99.7179 83.971 99.2273 74.3738 99.1889 74.2972ZM88.8022 74.8568C91.8684 74.9871 95.4942 74.7954 98.6064 74.7878C98.6524 76.0679 98.9283 83.5801 98.9666 84.5919C95.5632 84.7453 92.7039 84.6916 89.0782 84.5919C89.1165 83.3118 88.8482 76.0219 88.8022 74.8798V74.8568Z" fill="black"/>
<path d="M92.5045 79.824C93.0488 79.824 95.8313 80.0157 96.0536 79.893C96.1122 79.8597 96.1623 79.8133 96.2 79.7574C96.2377 79.7016 96.2619 79.6377 96.2708 79.5709C96.2797 79.5041 96.2731 79.4361 96.2514 79.3723C96.2296 79.3085 96.1934 79.2506 96.1456 79.2031C95.7393 78.7739 93.1714 78.8659 92.7421 78.9502C92.1596 79.0575 92.0522 79.2798 92.0676 79.4484C92.088 79.5508 92.1421 79.6435 92.2213 79.7115C92.3005 79.7796 92.4002 79.8192 92.5045 79.824ZM93.5394 57.3258C91.0251 57.3718 88.3805 57.4638 87.9435 57.4944C87.7749 57.4944 87.5986 57.6401 87.5756 59.2345C87.5756 61.1432 87.9052 67.1913 88.6718 67.245C90.2049 67.3599 98.131 67.3906 99.1505 67.3139C99.3115 67.3139 99.4418 67.3139 99.1505 63.3279C98.9895 61.2735 98.6292 57.5404 98.6292 57.5404C98.5986 57.3871 98.5833 57.2491 93.5394 57.3258ZM98.0543 58.0004C98.2383 60.8596 98.338 63.7878 98.6446 66.6624H88.8941C88.5951 63.8951 88.3958 61.0436 88.1812 58.1153L98.0543 58.0004ZM89.7526 53.0101C92.8648 53.0101 98.0697 52.5885 98.1157 52.5655C98.6062 52.3126 98.1157 45.3906 97.9547 42.4317C97.9547 41.9028 95.2488 41.8952 93.0028 41.9795C92.0216 41.9795 87.1463 42.2401 87.1617 42.9377C87.4223 53.2018 87.361 52.7035 87.5526 52.8108C88.2699 52.998 89.0133 53.0653 89.7526 53.0101ZM88.1352 52.2436C87.9589 49.2234 87.8975 46.0192 87.7749 43.045C90.958 42.7623 94.1542 42.6548 97.3491 42.723C97.3491 43.7732 97.5561 50.7565 97.6864 51.9216C96.5519 51.9983 89.3233 52.0519 88.1582 52.2512L88.1352 52.2436Z" fill="black"/>
<path d="M145.711 64.3551C143.703 9.72305 144.546 10.183 144.178 9.86103C143.657 9.37043 139.632 9.69238 138.643 9.74604L138.229 1.36765C138.249 1.31712 138.256 1.26257 138.251 1.20864C138.245 1.1547 138.226 1.10297 138.196 1.05783C138.166 1.01269 138.125 0.975477 138.078 0.949346C138.03 0.923214 137.977 0.908936 137.923 0.907723C121.825 0.70842 105.26 1.77393 88.6489 2.90075C84.1723 3.21504 79.5193 3.491 74.966 3.97392C74.9234 3.96708 74.8799 3.96978 74.8384 3.98182C74.797 3.99385 74.7588 4.01494 74.7266 4.04354C74.6943 4.07214 74.6688 4.10755 74.6519 4.14721C74.6349 4.18687 74.627 4.22979 74.6287 4.27288C75.4719 24.7398 77.9249 57.8241 82.1639 94.4575C82.2099 94.8791 85.7054 94.5111 88.8482 94.3042C88.8893 95.2059 89.0518 96.098 89.3311 96.9564C89.7911 97.539 146.654 94.0129 146.585 91.5906C146.339 82.4916 146.01 73.2777 145.711 64.3551ZM141.403 88.2561C121.243 91.3223 103.114 92.1808 82.8691 93.9286C78.8601 59.1962 77.212 35.3718 75.2036 4.51051C81.428 4.14256 104.448 2.02689 137.7 1.58995C138.528 23.8736 141.61 85.8031 141.38 88.2561H141.403ZM45.1779 35.5558C44.6566 35.5558 44.6643 36.5676 44.9096 36.9509C44.9379 37.007 44.982 37.0536 45.0365 37.0849C45.091 37.1163 45.1534 37.131 45.2162 37.1272C45.6838 37.0736 45.6608 35.6094 45.1779 35.5558ZM42.4413 39.9864C42.7709 40.0708 43.6601 40.1244 43.8671 39.8178C44.1583 39.3885 43.3688 35.4945 43.2691 35.2185C43.2486 35.1622 43.2088 35.115 43.1567 35.0853C43.1047 35.0556 43.0437 35.0454 42.9848 35.0564C42.9259 35.0675 42.8729 35.0991 42.8351 35.1456C42.7973 35.1921 42.7773 35.2506 42.7786 35.3105C42.7786 36.008 43.0928 38.3767 43.2155 39.3655L42.4489 39.4115C42.3929 39.4354 42.345 39.475 42.3111 39.5256C42.2771 39.5762 42.2587 39.6356 42.2578 39.6965C42.257 39.7574 42.2739 39.8172 42.3065 39.8687C42.3391 39.9202 42.3859 39.9611 42.4413 39.9864ZM44.5263 34.1223C44.7532 34.0602 44.9918 34.0542 45.2215 34.105C45.4512 34.1557 45.6652 34.2617 45.8448 34.4136C46.1437 34.6819 46.7186 34.1683 45.8984 33.6471C45.3082 33.2485 43.9284 33.1105 44.074 33.8157C44.0978 33.9139 44.1573 33.9997 44.2409 34.0564C44.3245 34.1131 44.4263 34.1366 44.5263 34.1223Z" fill="black"/>
<path d="M67.0015 61.9863C62.0726 57.1264 53.2036 51.4156 45.2315 50.2811C45.3635 49.8255 45.3635 49.3417 45.2315 48.886C45.8383 48.3788 46.4024 47.8224 46.9179 47.2226C48.014 45.9348 47.991 44.6776 46.4273 45.3139C47.9604 41.9257 47.9604 34.5822 47.4085 30.4581C49.9764 32.0602 54.3074 30.5195 53.7785 27.3919C57.2663 28.4421 59.5353 21.5125 55.1046 20.263C55.7255 15.0198 49.0106 14.2609 46.9562 17.3195C45.7987 13.939 40.4789 15.7174 40.8621 18.3697C38.4628 15.794 33.2809 16.6909 32.5604 19.9028C30.3911 17.9327 26.8113 18.7683 27.1256 21.6735C23.6914 20.0791 21.8747 24.1878 24.5423 25.5062C22.8329 26.4261 22.8865 30.2129 25.5081 30.2129C25.5081 32.7425 27.0412 38.5376 30.8357 41.7111C31.2419 45.2602 30.5137 47.0769 29.2489 50.3654C16.7388 52.2665 7.24124 62.0247 2.97923 74.1285C-1.8807 87.9264 0.426614 100.958 14.8301 103.702C14.8001 105.543 14.5844 107.377 14.1862 109.175C14.179 109.243 14.1965 109.311 14.2355 109.367C14.2745 109.423 14.3324 109.463 14.3985 109.48C14.4647 109.497 14.5346 109.489 14.5956 109.458C14.6566 109.428 14.7044 109.376 14.7304 109.313C15.2436 107.527 15.5219 105.682 15.5583 103.825C19.0283 104.34 22.5732 103.799 25.7315 102.272C28.8897 100.745 31.515 98.3024 33.2656 95.2623C35.4846 96.1052 37.7495 96.8218 40.0496 97.4086C47.2858 99.4553 56.722 101.487 65.66 99.0644C65.4837 103.349 65.2384 106.784 64.8551 110.195C64.8551 110.532 65.3227 110.632 65.3764 110.294C65.6754 108.501 66.4189 100.628 66.3729 98.8574C72.0607 97.1097 75.8628 93.1619 76.798 88.0337C78.4307 79.341 74.7513 69.5829 67.0015 61.9863ZM34.4461 28.971C34.6454 31.2094 34.4461 32.8038 33.7639 33.8386C33.5109 34.2142 33.1276 34.6052 32.798 34.6052C32.5451 34.3292 30.8893 32.6122 29.3256 33.6163C28.306 34.2832 28.26 35.5787 29.2259 37.2651C29.9162 38.2894 30.4101 39.4331 30.6823 40.6379C27.7465 37.4491 26.8496 34.4595 26.175 30.1745C26.9542 30.034 27.6655 29.6407 28.1987 29.0554C29.5402 31.0484 32.821 30.6498 34.4461 28.971ZM29.6935 34.1223C30.7283 33.486 31.6865 34.2526 32.5604 35.0191C33.074 35.4714 33.9172 34.8351 34.3158 34.2526C35.3583 32.8115 35.2663 30.4198 35.1283 29.224C35.8724 29.9326 36.8605 30.3278 37.8879 30.3278C38.9154 30.3278 39.9035 29.9326 40.6475 29.224C40.8008 31.4317 45.4308 31.9376 46.6496 30.1055C47.2092 33.9383 47.4775 42.2247 45.6224 45.6972C44.0893 46.3717 40.6015 47.9125 38.8691 47.2303C37.382 46.64 36.6308 44.371 34.8984 43.3975C33.7332 42.7536 32.7367 43.4818 33.5492 44.785C35.6036 48.0505 35.4196 49.2923 33.7945 52.6498C32.3703 52.2616 31.0383 51.5917 29.8775 50.6797C31.5639 48.2651 32.0238 43.9571 31.6022 41.0902C31.2266 38.5376 30.8357 38.6909 29.8238 36.8052C29.3562 36.031 28.9423 34.5975 29.6935 34.1223ZM42.6252 49.5836C42.564 49.6119 42.5154 49.6617 42.4884 49.7235C42.4614 49.7852 42.458 49.8547 42.4787 49.9189C42.4995 49.983 42.543 50.0373 42.601 50.0716C42.6591 50.1058 42.7277 50.1177 42.7938 50.1048C43.4512 49.9874 44.0743 49.7256 44.6182 49.3383C44.6624 50.0531 44.4741 50.763 44.0816 51.362C43.9437 51.5536 44.189 52.1285 44.6872 51.4156C44.6489 53.5313 43.5681 56.1452 41.4907 57.1724C40.0828 56.9179 38.7429 56.3744 37.5555 55.5762C36.3681 54.778 35.359 53.7424 34.5918 52.5348C36.8914 48.5947 34.8677 45.6358 34.1931 44.4094C33.8175 43.7041 34.0092 43.5968 34.6224 43.9954C36.0712 44.9153 37.3437 47.4832 38.7464 47.8282C41.391 48.4644 44.6489 46.87 46.2433 46.1571C47.0712 45.7815 47.5541 45.5285 46.5576 46.778C45.2238 48.4261 44.4649 48.771 42.6252 49.5836ZM10.1848 82.2999C10.1571 82.3622 10.1527 82.4325 10.1726 82.4978C10.1924 82.563 10.2352 82.619 10.2929 82.6553C10.3507 82.6916 10.4196 82.7059 10.487 82.6955C10.5544 82.6852 10.6159 82.6509 10.6601 82.5989C17.3827 72.0052 28.5053 64.6539 34.2315 53.3167C35.1207 55.2944 38.9228 57.8393 41.2684 57.8393C41.2684 59.748 41.0768 62.017 40.8775 64.194C38.5778 63.6651 32.3611 61.7181 31.2419 59.1731C31.1116 58.8588 30.6057 59.0735 30.7283 59.3877C31.7785 62.2316 38.2635 64.516 40.8085 64.9989C40.2709 70.7265 39.206 76.3924 37.6273 81.9243C36.4698 86.0637 34.9827 91.0692 32.8363 94.7717C31.1252 97.8157 28.507 100.25 25.3467 101.735C22.1863 103.221 18.6413 103.683 15.2057 103.058C1.05519 100.574 -1.07582 87.8114 3.73045 74.3278C8.22243 61.6951 18.0573 52.8031 29.4022 51.1167C30.6354 52.026 31.9835 52.7683 33.4113 53.3243C27.6621 64.4163 16.7005 71.6985 10.1848 82.2999ZM38.2865 82.2463C45.7352 79.1072 53.6494 77.2141 61.7123 76.6428C64.0119 76.4895 66.3116 76.4971 68.6112 76.4971C68.9485 76.4971 68.9562 75.9452 68.6112 75.9452C67.0474 75.8367 65.479 75.8086 63.9123 75.8609C63.5367 72.7947 58.0099 63.8491 56.1318 61.3731C56.0837 61.3277 56.0209 61.301 55.9548 61.298C55.8887 61.2949 55.8238 61.3158 55.7717 61.3567C55.7197 61.3975 55.6841 61.4557 55.6714 61.5207C55.6587 61.5856 55.6698 61.6529 55.7025 61.7104C59.4663 66.9842 62.5095 73.6992 63.1151 75.8916C56.3771 76.1445 45.9827 77.7389 38.5012 81.4031C39.2064 78.8198 41.9353 68.1647 41.9966 57.64C44.1046 56.6972 45.6071 53.286 45.4308 50.994C53.3787 52.8041 60.6683 56.7846 66.4879 62.4923C73.3179 69.1842 77.5032 77.8233 76.2154 87.2135C75.5332 92.5794 71.7234 96.734 66.0356 98.2442C56.2315 100.927 46.1437 98.5968 36.4621 95.5919C35.5249 95.2765 34.5702 95.0154 33.6029 94.81C35.562 90.7814 37.1304 86.5742 38.2865 82.2463Z" fill="black"/>
<path d="M37.911 32.8958C38.1091 32.6031 38.3733 32.361 38.6822 32.1893C38.9911 32.0175 39.3362 31.9208 39.6894 31.907C40.2489 31.907 40.2183 31.0638 39.6894 31.1404C39.2341 31.1883 38.7957 31.3395 38.4078 31.5827C38.0199 31.8258 37.6926 32.1543 37.451 32.5432C37.2517 32.8575 37.6963 33.2024 37.911 32.8958ZM39.72 35.0192C39.4057 35.2721 39.4287 36.5523 39.904 36.5523C40.0127 36.5409 40.1143 36.4931 40.1923 36.4165C40.2703 36.3399 40.32 36.2391 40.3333 36.1307C40.5096 35.4638 40.0573 34.7815 39.72 35.0192ZM39.0455 41.3509C39.0311 41.2909 38.9986 41.2369 38.9524 41.1961C38.9062 41.1554 38.8485 41.1299 38.7873 41.1232C38.726 41.1165 38.6642 41.1288 38.6102 41.1586C38.5563 41.1884 38.5128 41.2341 38.4859 41.2895C38.4092 41.3969 38.2636 41.7265 38.5855 42.3934C38.8041 42.8474 39.1813 43.2056 39.6459 43.4005C40.1105 43.5954 40.6305 43.6135 41.1075 43.4512C41.1721 43.4256 41.225 43.3771 41.2562 43.315C41.2874 43.2529 41.2948 43.1814 41.2768 43.1143C41.2588 43.0471 41.2168 42.9889 41.1588 42.9507C41.1007 42.9125 41.0306 42.8969 40.9618 42.907C39.8733 43.1216 39.2448 42.4317 39.0455 41.3509Z" fill="black"/>
</svg>
